<?xml version="1.0" encoding="iso-8859-1"?>
<!-- Generator: Adobe Illustrator 26.1.0, SVG Export Plug-In . SVG Version: 6.00 Build 0)  -->
<svg version="1.1" id="Layer_1" xmlns="http://www.w3.org/2000/svg" xmlns:xlink="http://www.w3.org/1999/xlink" x="0px" y="0px"
	 viewBox="0 0 882.183 419.101" style="enable-background:new 0 0 882.183 419.101;" xml:space="preserve">
<g>
	<g>
		<path style="fill:#0B0A0B;" d="M354.674,163.158l26.513,0.101c0,31.267,0,62.076,0,93.343l-26.091-0.101l-0.22-11.721
			c-6.29,9.916-19.828,13.729-28.977,13.919c-28.217,0.19-48.619-18.112-48.619-49.189c0-31.267,21.541-49.572,49.379-49.192
			c11.822,0,22.878,4.576,27.837,12.965L354.674,163.158z M304.734,209.51c0,15.632,11.056,24.784,24.788,24.784
			c15.442,0,24.974-12.012,24.974-23.831c0-13.539-8.579-25.931-24.974-25.931C315.79,184.532,304.734,193.874,304.734,209.51z"/>
		<path style="fill:#0B0A0B;" d="M480.414,162.417v49.762c0,14.489,6.29,21.925,19.445,21.925
			c12.775,0.19,21.355-10.869,21.355-23.071v-48.615h27.074v94.184h-24.784l-0.956-12.392
			c-8.386,11.249-19.065,14.489-30.504,14.299c-21.161,0-39.276-9.532-39.276-46.139v-49.952H480.414z"/>
		<path style="fill:#0B0A0B;" d="M639.435,256.602V206.84c0-14.489-6.293-21.925-19.448-21.925
			c-12.772-0.193-21.351,10.866-21.351,23.068v48.619h-27.074v-94.184h25.753l-0.015,12.009
			c8.389-10.866,19.065-14.489,30.507-14.299c21.165,0,39.273,9.916,39.273,46.522v49.952H639.435z"/>
		<path style="fill:#0B0A0B;" d="M761.077,163.158l26.516,0.101c0,31.267,0,62.076,0,93.343l-26.094-0.101l-0.216-11.721
			c-6.296,9.916-19.831,13.729-28.984,13.919c-28.217,0.19-48.619-18.112-48.619-49.189c0-31.267,21.548-49.572,49.385-49.192
			c11.819,0,22.878,4.576,27.834,12.965L761.077,163.158z M711.137,209.51c0,15.632,11.059,24.784,24.784,24.784
			c15.445,0,24.978-12.012,24.978-23.831c0-13.539-8.579-25.931-24.978-25.931C722.196,184.532,711.137,193.874,711.137,209.51z"/>
		<path style="fill:#0B0A0B;" d="M404.464,162.224v99.717c0,8.999-3.162,12.68-8.018,12.964h-8.836v21.85
			c0,0,3.347,1.079,8.836,1.477c18.73,2.124,35.852-8.886,35.279-37.053v-98.954H404.464z"/>
	</g>
	<g>
		<linearGradient id="SVGID_1_" gradientUnits="userSpaceOnUse" x1="110.3866" y1="193.8384" x2="149.0886" y2="137.6413">
			<stop  offset="0.1511" style="stop-color:#146BB5"/>
			<stop  offset="0.2679" style="stop-color:#1566AE"/>
			<stop  offset="0.4349" style="stop-color:#155CA0"/>
			<stop  offset="0.6321" style="stop-color:#144C8B"/>
			<stop  offset="0.8507" style="stop-color:#0E356F"/>
			<stop  offset="1" style="stop-color:#06235B"/>
		</linearGradient>
		<path style="fill:url(#SVGID_1_);" d="M123.814,115.989c-16.307,18.829-27.458,49.133-29.223,83.884h52.468
			c1.753-24.756,9.896-41.827,15.767-49.054C149.379,130.045,131.781,119.952,123.814,115.989z"/>
	</g>
	
		<linearGradient id="SVGID_00000181799090419543115680000008789785196492508859_" gradientUnits="userSpaceOnUse" x1="209.1826" y1="138.4337" x2="147.9685" y2="170.9705">
		<stop  offset="0" style="stop-color:#7EC8EF"/>
		<stop  offset="1" style="stop-color:#405EAB"/>
	</linearGradient>
	<path style="fill:url(#SVGID_00000181799090419543115680000008789785196492508859_);" d="M178.592,199.873h52.468
		c-2.964-58.339-32.371-104.161-68.234-104.161c-14.5,0-27.943,7.496-39.011,20.276c7.939,3.949,25.555,14.041,39.011,34.831
		C176.03,171.22,178.168,191.013,178.592,199.873z"/>
	<g>
		
			<linearGradient id="SVGID_00000014628228099070470730000014208932818277990581_" gradientUnits="userSpaceOnUse" x1="110.3867" y1="396.68" x2="149.0887" y2="340.4829" gradientTransform="matrix(1 0 0 -1 0 621.943)">
			<stop  offset="0.1511" style="stop-color:#8DABD1"/>
			<stop  offset="0.3091" style="stop-color:#87A5CD"/>
			<stop  offset="0.5351" style="stop-color:#7797C4"/>
			<stop  offset="0.8007" style="stop-color:#5F81B6"/>
			<stop  offset="1" style="stop-color:#4970AA"/>
		</linearGradient>
		<path style="fill:url(#SVGID_00000014628228099070470730000014208932818277990581_);" d="M123.814,303.113
			c-16.307-18.829-27.458-49.133-29.223-83.884h52.468c1.753,24.756,9.896,41.827,15.767,49.054
			C149.379,289.056,131.781,299.15,123.814,303.113z"/>
	</g>
	
		<linearGradient id="SVGID_00000022559074488031872290000001657743121711956125_" gradientUnits="userSpaceOnUse" x1="217.8966" y1="336.6436" x2="156.6825" y2="369.1805" gradientTransform="matrix(1 0 0 -1 0 621.943)">
		<stop  offset="0.0564" style="stop-color:#CCE6F8"/>
		<stop  offset="0.796" style="stop-color:#82A5D4"/>
	</linearGradient>
	<path style="fill:url(#SVGID_00000022559074488031872290000001657743121711956125_);" d="M178.592,219.228h52.468
		c-2.964,58.339-32.371,104.161-68.234,104.161c-14.5,0-27.943-7.496-39.011-20.276c7.939-3.949,25.555-14.041,39.011-34.831
		C176.03,247.881,178.168,228.089,178.592,219.228z"/>
</g>
</svg>
