<?xml version="1.0" encoding="iso-8859-1"?>
<!-- Generator: Adobe Illustrator 26.1.0, SVG Export Plug-In . SVG Version: 6.00 Build 0)  -->
<svg version="1.1" xmlns="http://www.w3.org/2000/svg" xmlns:xlink="http://www.w3.org/1999/xlink" x="0px" y="0px"
	 viewBox="0 0 882.183 419.101" style="enable-background:new 0 0 882.183 419.101;" xml:space="preserve">
<g id="Layer_3">
</g>
<g id="Layer_1">
	<g>
		<g>
			<path style="fill:#F8F8F9;" d="M354.323,162.974l26.507,0.101c0,31.259,0,62.06,0,93.32l-26.085-0.101l-0.22-11.718
				c-6.288,9.913-19.823,13.725-28.97,13.915c-28.21,0.19-48.607-18.107-48.607-49.177c0-31.259,21.536-49.56,49.367-49.18
				c11.819,0,22.872,4.575,27.83,12.962L354.323,162.974z M304.395,209.314c0,15.628,11.053,24.778,24.781,24.778
				c15.438,0,24.968-12.009,24.968-23.825c0-13.535-8.577-25.924-24.968-25.924C315.448,184.343,304.395,193.683,304.395,209.314z"
				/>
			<path style="fill:#F8F8F9;" d="M480.032,162.233v49.75c0,14.485,6.288,21.919,19.44,21.919
				c12.772,0.19,21.349-10.866,21.349-23.065v-48.604h27.067v94.161H523.11l-0.956-12.389c-8.384,11.246-19.06,14.485-30.496,14.295
				c-21.156,0-39.267-9.53-39.267-46.128v-49.94H480.032z"/>
			<path style="fill:#F8F8F9;" d="M639.014,256.395v-49.75c0-14.485-6.291-21.919-19.443-21.919
				c-12.769-0.193-21.346,10.863-21.346,23.062v48.607h-27.067v-94.161h25.747l-0.015,12.006c8.387-10.863,19.06-14.485,30.5-14.295
				c21.159,0,39.263,9.913,39.263,46.511v49.94H639.014z"/>
			<path style="fill:#F8F8F9;" d="M760.626,162.974l26.51,0.101c0,31.259,0,62.06,0,93.32l-26.088-0.101l-0.216-11.718
				c-6.294,9.913-19.826,13.725-28.977,13.915c-28.21,0.19-48.607-18.107-48.607-49.177c0-31.259,21.542-49.56,49.373-49.18
				c11.816,0,22.872,4.575,27.827,12.962L760.626,162.974z M710.698,209.314c0,15.628,11.056,24.778,24.778,24.778
				c15.441,0,24.971-12.009,24.971-23.825c0-13.535-8.577-25.924-24.971-25.924C721.755,184.343,710.698,193.683,710.698,209.314z"
				/>
			<path style="fill:#F8F8F9;" d="M404.101,162.04v99.693c0,8.996-3.162,12.676-8.017,12.96h-8.834v21.844
				c0,0,3.346,1.079,8.834,1.477c18.726,2.124,35.843-8.883,35.271-37.044v-98.93H404.101z"/>
		</g>
		<g>
			<linearGradient id="SVGID_1_" gradientUnits="userSpaceOnUse" x1="110.8437" y1="193.598" x2="149.5457" y2="137.4008">
				<stop  offset="0.1511" style="stop-color:#646464"/>
				<stop  offset="0.2923" style="stop-color:#5D5D5D"/>
				<stop  offset="0.4943" style="stop-color:#4A4A4A"/>
				<stop  offset="0.7327" style="stop-color:#2B2B2B"/>
				<stop  offset="0.9974" style="stop-color:#000000"/>
				<stop  offset="1" style="stop-color:#000000"/>
			</linearGradient>
			<path style="fill:url(#SVGID_1_);" d="M124.271,115.748c-16.307,18.829-27.458,49.133-29.223,83.884h52.468
				c1.753-24.756,9.896-41.827,15.767-49.054C149.836,129.805,132.238,119.711,124.271,115.748z"/>
		</g>
		
			<linearGradient id="SVGID_00000018934088061724383080000011469320256626801556_" gradientUnits="userSpaceOnUse" x1="209.6397" y1="138.1932" x2="148.4255" y2="170.7301">
			<stop  offset="0" style="stop-color:#D3D3D3"/>
			<stop  offset="1" style="stop-color:#575757"/>
		</linearGradient>
		<path style="fill:url(#SVGID_00000018934088061724383080000011469320256626801556_);" d="M179.049,199.633h52.468
			c-2.964-58.339-32.371-104.161-68.234-104.161c-14.5,0-27.943,7.496-39.011,20.276c7.939,3.949,25.555,14.041,39.011,34.831
			C176.487,170.98,178.625,190.772,179.049,199.633z"/>
		<g>
			
				<linearGradient id="SVGID_00000095324738948890740730000004888621176627051963_" gradientUnits="userSpaceOnUse" x1="110.8437" y1="396.9205" x2="149.5457" y2="340.7233" gradientTransform="matrix(1 0 0 -1 0 621.943)">
				<stop  offset="0.1511" style="stop-color:#1C1C1C"/>
				<stop  offset="0.6427" style="stop-color:#151515"/>
				<stop  offset="1" style="stop-color:#0D0D0D"/>
			</linearGradient>
			<path style="fill:url(#SVGID_00000095324738948890740730000004888621176627051963_);" d="M124.271,302.872
				c-16.307-18.829-27.458-49.133-29.223-83.884h52.468c1.753,24.756,9.896,41.827,15.767,49.054
				C149.837,288.816,132.238,298.909,124.271,302.872z"/>
		</g>
		
			<linearGradient id="SVGID_00000081611130514344106770000010122520294716302752_" gradientUnits="userSpaceOnUse" x1="209.6397" y1="341.5157" x2="148.4256" y2="374.0526" gradientTransform="matrix(1 0 0 -1 0 621.943)">
			<stop  offset="0" style="stop-color:#242424"/>
			<stop  offset="1" style="stop-color:#0D0D0D"/>
		</linearGradient>
		<path style="fill:url(#SVGID_00000081611130514344106770000010122520294716302752_);" d="M179.049,218.988h52.468
			c-2.964,58.339-32.371,104.161-68.234,104.161c-14.5,0-27.943-7.496-39.011-20.276c7.939-3.949,25.555-14.041,39.011-34.831
			C176.487,247.641,178.625,227.848,179.049,218.988z"/>
	</g>
</g>
<g id="Layer_2" style="display:none;">
	<g style="display:inline;">
		
			<line style="fill:none;stroke:#EC008C;stroke-width:0.75;stroke-miterlimit:10;" x1="-2071.22" y1="75.24" x2="-2071.22" y2="357.347"/>
		
			<line style="fill:none;stroke:#EC008C;stroke-width:0.75;stroke-miterlimit:10;" x1="-1777.594" y1="357.347" x2="-1777.594" y2="75.24"/>
		
			<line style="fill:none;stroke:#EC008C;stroke-width:0.75;stroke-miterlimit:10;" x1="-2253.268" y1="357.348" x2="-2253.268" y2="75.24"/>
		
			<line style="fill:none;stroke:#EC008C;stroke-width:0.75;stroke-miterlimit:10;" x1="-2071.22" y1="75.24" x2="-2071.22" y2="357.347"/>
		
			<line style="fill:none;stroke:#EC008C;stroke-width:0.75;stroke-miterlimit:10;" x1="-2253.268" y1="75.24" x2="-2253.268" y2="250.146"/>
		
			<line style="fill:none;stroke:#EC008C;stroke-width:0.75;stroke-miterlimit:10;" x1="-2071.22" y1="250.146" x2="-2071.22" y2="75.24"/>
	</g>
	<g style="display:inline;">
		
			<line style="fill:none;stroke:#97CA3D;stroke-width:0.75;stroke-miterlimit:10;" x1="-1772.234" y1="75.458" x2="-1772.234" y2="357.348"/>
		
			<line style="fill:none;stroke:#97CA3D;stroke-width:0.75;stroke-miterlimit:10;" x1="-2116.368" y1="357.347" x2="-2116.368" y2="75.458"/>
		
			<line style="fill:none;stroke:#97CA3D;stroke-width:0.75;stroke-miterlimit:10;" x1="-1558.87" y1="357.348" x2="-1558.87" y2="75.458"/>
		
			<line style="fill:none;stroke:#97CA3D;stroke-width:0.75;stroke-miterlimit:10;" x1="-1772.234" y1="75.458" x2="-1772.234" y2="357.348"/>
		
			<line style="fill:none;stroke:#97CA3D;stroke-width:0.75;stroke-miterlimit:10;" x1="-1558.87" y1="75.458" x2="-1558.87" y2="250.229"/>
		
			<line style="fill:none;stroke:#97CA3D;stroke-width:0.75;stroke-miterlimit:10;" x1="-1772.234" y1="250.229" x2="-1772.234" y2="75.458"/>
	</g>
	<g style="display:inline;">
		
			<line style="fill:none;stroke:#52C4F1;stroke-width:0.75;stroke-miterlimit:10;" x1="-1547.166" y1="260.596" x2="-2267.165" y2="260.596"/>
		
			<line style="fill:none;stroke:#52C4F1;stroke-width:0.75;stroke-miterlimit:10;" x1="-2267.164" y1="158.78" x2="-1547.165" y2="158.78"/>
		
			<line style="fill:none;stroke:#52C4F1;stroke-width:0.75;stroke-miterlimit:10;" x1="-2267.165" y1="323.721" x2="-1547.166" y2="323.721"/>
		
			<line style="fill:none;stroke:#52C4F1;stroke-width:0.75;stroke-miterlimit:10;" x1="-1547.166" y1="260.596" x2="-2267.165" y2="260.596"/>
	</g>
	<g style="display:inline;">
		
			<line style="fill:none;stroke:#52C4F1;stroke-width:0.75;stroke-miterlimit:10;" x1="-1547.166" y1="158.78" x2="-2267.165" y2="158.78"/>
		
			<line style="fill:none;stroke:#52C4F1;stroke-width:0.75;stroke-miterlimit:10;" x1="-2267.164" y1="260.596" x2="-1547.165" y2="260.596"/>
		
			<line style="fill:none;stroke:#52C4F1;stroke-width:0.75;stroke-miterlimit:10;" x1="-2267.165" y1="95.655" x2="-1547.166" y2="95.655"/>
		
			<line style="fill:none;stroke:#52C4F1;stroke-width:0.75;stroke-miterlimit:10;" x1="-1547.166" y1="158.78" x2="-2267.165" y2="158.78"/>
	</g>
	
		<line style="display:inline;fill:none;stroke:#EC008C;stroke-width:0.75;stroke-miterlimit:10;" x1="-1580.751" y1="323.721" x2="-1643.511" y2="323.721"/>
</g>
</svg>
