<?xml version="1.0" encoding="iso-8859-1"?>
<!-- Generator: Adobe Illustrator 26.1.0, SVG Export Plug-In . SVG Version: 6.00 Build 0)  -->
<svg version="1.1" xmlns="http://www.w3.org/2000/svg" xmlns:xlink="http://www.w3.org/1999/xlink" x="0px" y="0px"
	 viewBox="0 0 882.183 419.101" style="enable-background:new 0 0 882.183 419.101;" xml:space="preserve">
<g id="Layer_3">
</g>
<g id="Layer_1">
	<g>
		<g>
			<path style="fill:#F8F8F9;" d="M354.323,162.974l26.507,0.101c0,31.259,0,62.06,0,93.32l-26.085-0.101l-0.22-11.718
				c-6.288,9.913-19.823,13.725-28.97,13.915c-28.21,0.19-48.607-18.107-48.607-49.177c0-31.259,21.536-49.56,49.367-49.18
				c11.819,0,22.872,4.575,27.83,12.962L354.323,162.974z M304.395,209.314c0,15.628,11.053,24.778,24.781,24.778
				c15.438,0,24.968-12.009,24.968-23.825c0-13.535-8.577-25.924-24.968-25.924C315.448,184.343,304.395,193.683,304.395,209.314z"
				/>
			<path style="fill:#F8F8F9;" d="M480.032,162.233v49.75c0,14.485,6.288,21.919,19.44,21.919
				c12.772,0.19,21.349-10.866,21.349-23.065v-48.604h27.067v94.161H523.11l-0.956-12.389c-8.384,11.246-19.06,14.485-30.496,14.295
				c-21.156,0-39.267-9.53-39.267-46.128v-49.94H480.032z"/>
			<path style="fill:#F8F8F9;" d="M639.014,256.395v-49.75c0-14.485-6.291-21.919-19.443-21.919
				c-12.769-0.193-21.346,10.863-21.346,23.062v48.607h-27.067v-94.161h25.747l-0.015,12.006c8.387-10.863,19.06-14.485,30.5-14.295
				c21.159,0,39.263,9.913,39.263,46.511v49.94H639.014z"/>
			<path style="fill:#F8F8F9;" d="M760.626,162.974l26.51,0.101c0,31.259,0,62.06,0,93.32l-26.088-0.101l-0.216-11.718
				c-6.294,9.913-19.826,13.725-28.977,13.915c-28.21,0.19-48.607-18.107-48.607-49.177c0-31.259,21.542-49.56,49.373-49.18
				c11.816,0,22.872,4.575,27.827,12.962L760.626,162.974z M710.698,209.314c0,15.628,11.056,24.778,24.778,24.778
				c15.441,0,24.971-12.009,24.971-23.825c0-13.535-8.577-25.924-24.971-25.924C721.755,184.343,710.698,193.683,710.698,209.314z"
				/>
			<path style="fill:#F8F8F9;" d="M404.101,162.04v99.693c0,8.996-3.162,12.676-8.017,12.96h-8.834v21.844
				c0,0,3.346,1.079,8.834,1.477c18.726,2.124,35.843-8.883,35.271-37.044v-98.93H404.101z"/>
		</g>
		<g>
			<g>
				<path style="fill:#A7A9AC;" d="M590.905,322.999v-14.481c0-4.216-1.831-6.38-5.66-6.38c-3.717-0.056-6.213,3.162-6.213,6.713
					v14.148h-7.879v-27.408h7.212l0.278,3.495c2.441-3.162,5.548-4.216,8.877-4.161c6.159,0,11.43,2.886,11.43,13.538v14.536
					H590.905z"/>
				<path style="fill:#A7A9AC;" d="M611.117,311.902c0.388,2.663,2.94,4.828,7.434,4.828c2.164,0,5.159-0.5,7.102-2.164l4.494,4.993
					c-2.94,2.886-7.657,4.051-11.762,4.051c-9.932,0-15.369-5.826-15.369-14.592c0-8.323,5.604-14.148,14.536-14.148
					c9.322,0,15.425,5.825,13.705,17.032H611.117z M624.099,306.078c-0.166-2.996-3.217-4.384-6.547-4.384
					c-3.217,0-5.658,1.664-6.435,4.384H624.099z"/>
				<path style="fill:#A7A9AC;" d="M680.504,295.591l5.271,17.477l1.775-6.214l3.829-11.262h8.932l-10.154,27.574h-7.933
					l-4.883-13.704l-4.827,13.704h-7.99l-10.098-27.574h8.933l3.828,11.262l1.776,6.214l5.27-17.477H680.504z"/>
				<path style="fill:#A7A9AC;" d="M701.047,309.351c0-8.267,5.882-14.37,14.98-14.37c9.155,0,15.036,6.103,15.036,14.37
					c0,8.267-5.715,14.259-15.036,14.259C706.762,323.61,701.047,317.618,701.047,309.351z M722.963,309.351
					c0-3.44-2.108-7.212-6.935-7.212c-4.771,0-6.88,3.772-6.88,7.212s2.053,7.158,6.88,7.158
					C720.91,316.508,722.963,312.957,722.963,309.351z"/>
				<path style="fill:#A7A9AC;" d="M742.897,295.646l0.611,2.996c1.831-2.552,4.272-3.661,7.324-3.661
					c2.608,0,4.771,0.777,6.713,2.497l-3.329,6.325c-1.332-0.943-2.719-1.388-4.384-1.388c-3.44,0-6.381,2.219-6.381,6.325v14.259
					h-7.989v-27.353H742.897z"/>
				<path style="fill:#A7A9AC;" d="M767.88,284.218v22.137l8.101-10.708h9.431v0.5l-10.042,12.372l11.596,13.871v0.611h-9.599
					l-9.487-12.04v12.04h-7.989v-38.782H767.88z"/>
				<path style="fill:#A7A9AC;" d="M651.53,302.415v-6.658h-5.83v-10.942l-7.99,0.887v10.054h-3.885v6.658h3.885v10.32
					c0,8.544,4.494,11.152,10.432,10.875c0.272-0.014,0.514-0.043,0.771-0.065c0,0,1.529-0.146,2.309-0.277v-6.876h-2.522v0.001
					c-1.483-0.018-3.055-0.806-3.055-3.658v-10.32H651.53z"/>
			</g>
			<path style="fill:#A7A9AC;" d="M563.884,322.989h-6.645c-0.582,0-1.054-0.472-1.054-1.054v-6.645
				c0-0.582,0.472-1.054,1.054-1.054h6.645c0.582,0,1.054,0.472,1.054,1.054v6.645C564.938,322.517,564.466,322.989,563.884,322.989
				z"/>
		</g>
		<g>
			<linearGradient id="SVGID_1_" gradientUnits="userSpaceOnUse" x1="110.8437" y1="193.598" x2="149.5457" y2="137.4008">
				<stop  offset="0.1511" style="stop-color:#646464"/>
				<stop  offset="0.2923" style="stop-color:#5D5D5D"/>
				<stop  offset="0.4943" style="stop-color:#4A4A4A"/>
				<stop  offset="0.7327" style="stop-color:#2B2B2B"/>
				<stop  offset="0.9974" style="stop-color:#000000"/>
				<stop  offset="1" style="stop-color:#000000"/>
			</linearGradient>
			<path style="fill:url(#SVGID_1_);" d="M124.271,115.748c-16.307,18.829-27.458,49.133-29.223,83.884h52.468
				c1.753-24.756,9.896-41.827,15.767-49.054C149.836,129.805,132.238,119.711,124.271,115.748z"/>
		</g>
		
			<linearGradient id="SVGID_00000170270927373766485440000003023431462193221311_" gradientUnits="userSpaceOnUse" x1="209.6397" y1="138.1932" x2="148.4255" y2="170.7301">
			<stop  offset="0" style="stop-color:#D3D3D3"/>
			<stop  offset="1" style="stop-color:#575757"/>
		</linearGradient>
		<path style="fill:url(#SVGID_00000170270927373766485440000003023431462193221311_);" d="M179.049,199.633h52.468
			c-2.964-58.339-32.371-104.161-68.234-104.161c-14.5,0-27.943,7.496-39.011,20.276c7.939,3.949,25.555,14.041,39.011,34.831
			C176.487,170.98,178.625,190.772,179.049,199.633z"/>
		<g>
			
				<linearGradient id="SVGID_00000070112818509349657460000000667883177628570547_" gradientUnits="userSpaceOnUse" x1="110.8437" y1="396.9205" x2="149.5457" y2="340.7233" gradientTransform="matrix(1 0 0 -1 0 621.943)">
				<stop  offset="0.1511" style="stop-color:#1C1C1C"/>
				<stop  offset="0.6427" style="stop-color:#151515"/>
				<stop  offset="1" style="stop-color:#0D0D0D"/>
			</linearGradient>
			<path style="fill:url(#SVGID_00000070112818509349657460000000667883177628570547_);" d="M124.271,302.872
				c-16.307-18.829-27.458-49.133-29.223-83.884h52.468c1.753,24.756,9.896,41.827,15.767,49.054
				C149.837,288.816,132.238,298.909,124.271,302.872z"/>
		</g>
		
			<linearGradient id="SVGID_00000163041696535183323640000016911159628033529787_" gradientUnits="userSpaceOnUse" x1="209.6397" y1="341.5157" x2="148.4256" y2="374.0526" gradientTransform="matrix(1 0 0 -1 0 621.943)">
			<stop  offset="0" style="stop-color:#242424"/>
			<stop  offset="1" style="stop-color:#0D0D0D"/>
		</linearGradient>
		<path style="fill:url(#SVGID_00000163041696535183323640000016911159628033529787_);" d="M179.049,218.988h52.468
			c-2.964,58.339-32.371,104.161-68.234,104.161c-14.5,0-27.943-7.496-39.011-20.276c7.939-3.949,25.555-14.041,39.011-34.831
			C176.487,247.641,178.625,227.848,179.049,218.988z"/>
	</g>
</g>
<g id="Layer_2" style="display:none;">
	<g style="display:inline;">
		
			<line style="fill:none;stroke:#EC008C;stroke-width:0.75;stroke-miterlimit:10;" x1="-2071.22" y1="75.24" x2="-2071.22" y2="357.347"/>
		
			<line style="fill:none;stroke:#EC008C;stroke-width:0.75;stroke-miterlimit:10;" x1="-1777.594" y1="357.347" x2="-1777.594" y2="75.24"/>
		
			<line style="fill:none;stroke:#EC008C;stroke-width:0.75;stroke-miterlimit:10;" x1="-2253.268" y1="357.348" x2="-2253.268" y2="75.24"/>
		
			<line style="fill:none;stroke:#EC008C;stroke-width:0.75;stroke-miterlimit:10;" x1="-2071.22" y1="75.24" x2="-2071.22" y2="357.347"/>
		
			<line style="fill:none;stroke:#EC008C;stroke-width:0.75;stroke-miterlimit:10;" x1="-2253.268" y1="75.24" x2="-2253.268" y2="250.146"/>
		
			<line style="fill:none;stroke:#EC008C;stroke-width:0.75;stroke-miterlimit:10;" x1="-2071.22" y1="250.146" x2="-2071.22" y2="75.24"/>
	</g>
	<g style="display:inline;">
		
			<line style="fill:none;stroke:#97CA3D;stroke-width:0.75;stroke-miterlimit:10;" x1="-1772.234" y1="75.458" x2="-1772.234" y2="357.348"/>
		
			<line style="fill:none;stroke:#97CA3D;stroke-width:0.75;stroke-miterlimit:10;" x1="-2116.368" y1="357.347" x2="-2116.368" y2="75.458"/>
		
			<line style="fill:none;stroke:#97CA3D;stroke-width:0.75;stroke-miterlimit:10;" x1="-1558.87" y1="357.348" x2="-1558.87" y2="75.458"/>
		
			<line style="fill:none;stroke:#97CA3D;stroke-width:0.75;stroke-miterlimit:10;" x1="-1772.234" y1="75.458" x2="-1772.234" y2="357.348"/>
		
			<line style="fill:none;stroke:#97CA3D;stroke-width:0.75;stroke-miterlimit:10;" x1="-1558.87" y1="75.458" x2="-1558.87" y2="250.229"/>
		
			<line style="fill:none;stroke:#97CA3D;stroke-width:0.75;stroke-miterlimit:10;" x1="-1772.234" y1="250.229" x2="-1772.234" y2="75.458"/>
	</g>
	<g style="display:inline;">
		
			<line style="fill:none;stroke:#52C4F1;stroke-width:0.75;stroke-miterlimit:10;" x1="-1547.166" y1="260.596" x2="-2267.165" y2="260.596"/>
		
			<line style="fill:none;stroke:#52C4F1;stroke-width:0.75;stroke-miterlimit:10;" x1="-2267.164" y1="158.78" x2="-1547.165" y2="158.78"/>
		
			<line style="fill:none;stroke:#52C4F1;stroke-width:0.75;stroke-miterlimit:10;" x1="-2267.165" y1="323.721" x2="-1547.166" y2="323.721"/>
		
			<line style="fill:none;stroke:#52C4F1;stroke-width:0.75;stroke-miterlimit:10;" x1="-1547.166" y1="260.596" x2="-2267.165" y2="260.596"/>
	</g>
	<g style="display:inline;">
		
			<line style="fill:none;stroke:#52C4F1;stroke-width:0.75;stroke-miterlimit:10;" x1="-1547.166" y1="158.78" x2="-2267.165" y2="158.78"/>
		
			<line style="fill:none;stroke:#52C4F1;stroke-width:0.75;stroke-miterlimit:10;" x1="-2267.164" y1="260.596" x2="-1547.165" y2="260.596"/>
		
			<line style="fill:none;stroke:#52C4F1;stroke-width:0.75;stroke-miterlimit:10;" x1="-2267.165" y1="95.655" x2="-1547.166" y2="95.655"/>
		
			<line style="fill:none;stroke:#52C4F1;stroke-width:0.75;stroke-miterlimit:10;" x1="-1547.166" y1="158.78" x2="-2267.165" y2="158.78"/>
	</g>
	
		<line style="display:inline;fill:none;stroke:#EC008C;stroke-width:0.75;stroke-miterlimit:10;" x1="-1580.751" y1="323.721" x2="-1643.511" y2="323.721"/>
</g>
</svg>
