<?xml version="1.0" encoding="iso-8859-1"?>
<!-- Generator: Adobe Illustrator 26.1.0, SVG Export Plug-In . SVG Version: 6.00 Build 0)  -->
<svg version="1.1" id="Layer_1" xmlns="http://www.w3.org/2000/svg" xmlns:xlink="http://www.w3.org/1999/xlink" x="0px" y="0px"
	 viewBox="0 0 882.183 419.101" style="enable-background:new 0 0 882.183 419.101;" xml:space="preserve">
<g>
	<g>
		<path style="fill:#F8F8F9;" d="M354.323,162.974l26.507,0.101c0,31.259,0,62.06,0,93.32l-26.085-0.101l-0.22-11.718
			c-6.288,9.913-19.823,13.725-28.97,13.915c-28.21,0.19-48.607-18.107-48.607-49.177c0-31.259,21.536-49.56,49.367-49.18
			c11.819,0,22.872,4.575,27.83,12.962L354.323,162.974z M304.395,209.314c0,15.628,11.053,24.778,24.781,24.778
			c15.438,0,24.968-12.009,24.968-23.825c0-13.535-8.577-25.924-24.968-25.924C315.448,184.343,304.395,193.683,304.395,209.314z"/>
		<path style="fill:#F8F8F9;" d="M480.032,162.233v49.75c0,14.485,6.288,21.919,19.44,21.919
			c12.772,0.19,21.349-10.866,21.349-23.065v-48.604h27.067v94.161H523.11l-0.956-12.389c-8.384,11.246-19.06,14.485-30.496,14.295
			c-21.156,0-39.267-9.53-39.267-46.128v-49.94H480.032z"/>
		<path style="fill:#F8F8F9;" d="M639.014,256.395v-49.75c0-14.485-6.291-21.919-19.443-21.919
			c-12.769-0.193-21.346,10.863-21.346,23.062v48.607h-27.067v-94.161h25.747l-0.015,12.006c8.387-10.863,19.06-14.485,30.5-14.295
			c21.159,0,39.263,9.913,39.263,46.511v49.94H639.014z"/>
		<path style="fill:#F8F8F9;" d="M760.626,162.974l26.51,0.101c0,31.259,0,62.06,0,93.32l-26.088-0.101l-0.216-11.718
			c-6.294,9.913-19.826,13.725-28.977,13.915c-28.21,0.19-48.607-18.107-48.607-49.177c0-31.259,21.542-49.56,49.373-49.18
			c11.816,0,22.872,4.575,27.827,12.962L760.626,162.974z M710.698,209.314c0,15.628,11.056,24.778,24.778,24.778
			c15.441,0,24.971-12.009,24.971-23.825c0-13.535-8.577-25.924-24.971-25.924C721.755,184.343,710.698,193.683,710.698,209.314z"/>
		<path style="fill:#F8F8F9;" d="M404.101,162.04v99.693c0,8.996-3.162,12.676-8.017,12.96h-8.834v21.844
			c0,0,3.346,1.079,8.834,1.477c18.726,2.124,35.843-8.883,35.271-37.044v-98.93H404.101z"/>
	</g>
	<g>
		<linearGradient id="SVGID_1_" gradientUnits="userSpaceOnUse" x1="110.8437" y1="193.598" x2="149.5457" y2="137.4008">
			<stop  offset="0.1511" style="stop-color:#146BB5"/>
			<stop  offset="0.2679" style="stop-color:#1566AE"/>
			<stop  offset="0.4349" style="stop-color:#155CA0"/>
			<stop  offset="0.6321" style="stop-color:#144C8B"/>
			<stop  offset="0.8507" style="stop-color:#0E356F"/>
			<stop  offset="1" style="stop-color:#06235B"/>
		</linearGradient>
		<path style="fill:url(#SVGID_1_);" d="M124.271,115.748c-16.307,18.829-27.458,49.133-29.223,83.884h52.468
			c1.753-24.756,9.896-41.827,15.767-49.054C149.836,129.805,132.238,119.711,124.271,115.748z"/>
	</g>
	
		<linearGradient id="SVGID_00000168815363452195332580000017340423439511620746_" gradientUnits="userSpaceOnUse" x1="209.6397" y1="138.1932" x2="148.4255" y2="170.7301">
		<stop  offset="0" style="stop-color:#7EC8EF"/>
		<stop  offset="1" style="stop-color:#405EAB"/>
	</linearGradient>
	<path style="fill:url(#SVGID_00000168815363452195332580000017340423439511620746_);" d="M179.049,199.633h52.468
		c-2.964-58.339-32.371-104.161-68.234-104.161c-14.5,0-27.943,7.496-39.011,20.276c7.939,3.949,25.555,14.041,39.011,34.831
		C176.487,170.98,178.625,190.772,179.049,199.633z"/>
	<g>
		
			<linearGradient id="SVGID_00000039845398648195373290000001558846757096385420_" gradientUnits="userSpaceOnUse" x1="110.8437" y1="396.9205" x2="149.5457" y2="340.7233" gradientTransform="matrix(1 0 0 -1 0 621.943)">
			<stop  offset="0.1511" style="stop-color:#152E52"/>
			<stop  offset="0.3877" style="stop-color:#142C4F"/>
			<stop  offset="0.7252" style="stop-color:#122645"/>
			<stop  offset="1" style="stop-color:#0F1F3B"/>
		</linearGradient>
		<path style="fill:url(#SVGID_00000039845398648195373290000001558846757096385420_);" d="M124.271,302.872
			c-16.307-18.829-27.458-49.133-29.223-83.884h52.468c1.753,24.756,9.896,41.827,15.767,49.054
			C149.837,288.816,132.238,298.909,124.271,302.872z"/>
	</g>
	
		<linearGradient id="SVGID_00000183223042707347081720000014254956295747421844_" gradientUnits="userSpaceOnUse" x1="209.6397" y1="341.5157" x2="148.4256" y2="374.0526" gradientTransform="matrix(1 0 0 -1 0 621.943)">
		<stop  offset="0" style="stop-color:#1B4F76"/>
		<stop  offset="1" style="stop-color:#142553"/>
	</linearGradient>
	<path style="fill:url(#SVGID_00000183223042707347081720000014254956295747421844_);" d="M179.049,218.988h52.468
		c-2.964,58.339-32.371,104.161-68.234,104.161c-14.5,0-27.943-7.496-39.011-20.276c7.939-3.949,25.555-14.041,39.011-34.831
		C176.487,247.641,178.625,227.848,179.049,218.988z"/>
</g>
</svg>
