<?xml version="1.0" encoding="iso-8859-1"?>
<!-- Generator: Adobe Illustrator 26.1.0, SVG Export Plug-In . SVG Version: 6.00 Build 0)  -->
<svg version="1.1" xmlns="http://www.w3.org/2000/svg" xmlns:xlink="http://www.w3.org/1999/xlink" x="0px" y="0px"
	 viewBox="0 0 882.183 419.101" style="enable-background:new 0 0 882.183 419.101;" xml:space="preserve">
<g id="Layer_3">
</g>
<g id="Layer_1">
	<g>
		<g>
			<path style="fill:#0B0A0B;" d="M355.503,163.544l26.513,0.101c0,31.267,0,62.076,0,93.343l-26.091-0.101l-0.22-11.721
				c-6.289,9.916-19.828,13.729-28.977,13.919c-28.217,0.19-48.619-18.112-48.619-49.189c0-31.267,21.541-49.572,49.379-49.192
				c11.822,0,22.878,4.576,27.837,12.965L355.503,163.544z M305.564,209.896c0,15.632,11.056,24.784,24.788,24.784
				c15.442,0,24.974-12.012,24.974-23.831c0-13.539-8.579-25.931-24.974-25.931C316.619,184.918,305.564,194.261,305.564,209.896z"
				/>
			<path style="fill:#0B0A0B;" d="M481.243,162.804v49.762c0,14.489,6.29,21.925,19.445,21.925
				c12.775,0.19,21.355-10.869,21.355-23.071v-48.615h27.074v94.184h-24.784l-0.956-12.392
				c-8.386,11.249-19.065,14.489-30.504,14.299c-21.161,0-39.276-9.532-39.276-46.139v-49.952H481.243z"/>
			<path style="fill:#0B0A0B;" d="M640.264,256.988v-49.762c0-14.489-6.293-21.925-19.448-21.925
				c-12.772-0.193-21.351,10.866-21.351,23.068v48.619H572.39v-94.184h25.753l-0.015,12.009
				c8.389-10.866,19.065-14.489,30.507-14.299c21.165,0,39.273,9.916,39.273,46.522v49.952H640.264z"/>
			<path style="fill:#0B0A0B;" d="M761.906,163.544l26.516,0.101c0,31.267,0,62.076,0,93.343l-26.094-0.101l-0.216-11.721
				c-6.296,9.916-19.831,13.729-28.984,13.919c-28.217,0.19-48.619-18.112-48.619-49.189c0-31.267,21.548-49.572,49.385-49.192
				c11.819,0,22.878,4.576,27.834,12.965L761.906,163.544z M711.966,209.896c0,15.632,11.059,24.784,24.784,24.784
				c15.445,0,24.978-12.012,24.978-23.831c0-13.539-8.579-25.931-24.978-25.931C723.025,184.918,711.966,194.261,711.966,209.896z"
				/>
			<path style="fill:#0B0A0B;" d="M405.293,162.61v99.717c0,8.999-3.162,12.68-8.018,12.964h-8.836v21.85
				c0,0,3.347,1.079,8.836,1.477c18.73,2.124,35.852-8.886,35.279-37.053V162.61H405.293z"/>
		</g>
		<g>
			<linearGradient id="SVGID_1_" gradientUnits="userSpaceOnUse" x1="111.2159" y1="194.2247" x2="149.9179" y2="138.0276">
				<stop  offset="0.1511" style="stop-color:#646464"/>
				<stop  offset="0.2923" style="stop-color:#5D5D5D"/>
				<stop  offset="0.4943" style="stop-color:#4A4A4A"/>
				<stop  offset="0.7327" style="stop-color:#2B2B2B"/>
				<stop  offset="0.9974" style="stop-color:#000000"/>
				<stop  offset="1" style="stop-color:#000000"/>
			</linearGradient>
			<path style="fill:url(#SVGID_1_);" d="M124.643,116.375c-16.307,18.829-27.458,49.133-29.223,83.884h52.468
				c1.753-24.756,9.896-41.827,15.767-49.054C150.209,130.432,132.61,120.338,124.643,116.375z"/>
		</g>
		
			<linearGradient id="SVGID_00000059992096433110697230000001084880155450646150_" gradientUnits="userSpaceOnUse" x1="210.0119" y1="138.82" x2="148.7978" y2="171.3568">
			<stop  offset="0" style="stop-color:#D3D3D3"/>
			<stop  offset="1" style="stop-color:#575757"/>
		</linearGradient>
		<path style="fill:url(#SVGID_00000059992096433110697230000001084880155450646150_);" d="M179.421,200.259h52.468
			c-2.964-58.339-32.371-104.161-68.234-104.161c-14.5,0-27.943,7.496-39.011,20.276c7.939,3.949,25.555,14.041,39.011,34.831
			C176.859,171.606,178.997,191.399,179.421,200.259z"/>
		<g>
			
				<linearGradient id="SVGID_00000181785020676963762610000007490120620163312821_" gradientUnits="userSpaceOnUse" x1="111.216" y1="396.2937" x2="149.918" y2="340.0966" gradientTransform="matrix(1 0 0 -1 0 621.943)">
				<stop  offset="0.1511" style="stop-color:#B3B3B3"/>
				<stop  offset="0.3187" style="stop-color:#ACACAC"/>
				<stop  offset="0.5583" style="stop-color:#999999"/>
				<stop  offset="0.8398" style="stop-color:#7B7B7B"/>
				<stop  offset="1" style="stop-color:#666666"/>
			</linearGradient>
			<path style="fill:url(#SVGID_00000181785020676963762610000007490120620163312821_);" d="M124.644,303.499
				c-16.307-18.829-27.458-49.133-29.223-83.884h52.468c1.753,24.756,9.896,41.827,15.767,49.054
				C150.209,289.442,132.61,299.536,124.644,303.499z"/>
		</g>
		
			<linearGradient id="SVGID_00000114058124276915332140000003898651207970451103_" gradientUnits="userSpaceOnUse" x1="218.7259" y1="336.2574" x2="157.5118" y2="368.7942" gradientTransform="matrix(1 0 0 -1 0 621.943)">
			<stop  offset="0.0564" style="stop-color:#EEEEEE"/>
			<stop  offset="0.796" style="stop-color:#B1B1B1"/>
		</linearGradient>
		<path style="fill:url(#SVGID_00000114058124276915332140000003898651207970451103_);" d="M179.421,219.615h52.468
			c-2.964,58.339-32.371,104.161-68.234,104.161c-14.5,0-27.943-7.496-39.011-20.276c7.939-3.949,25.555-14.041,39.011-34.831
			C176.859,248.268,178.998,228.475,179.421,219.615z"/>
	</g>
</g>
<g id="Layer_2" style="display:none;">
	<g style="display:inline;">
		
			<line style="fill:none;stroke:#EC008C;stroke-width:0.75;stroke-miterlimit:10;" x1="-2071.22" y1="75.24" x2="-2071.22" y2="357.347"/>
		
			<line style="fill:none;stroke:#EC008C;stroke-width:0.75;stroke-miterlimit:10;" x1="-1777.594" y1="357.347" x2="-1777.594" y2="75.24"/>
		
			<line style="fill:none;stroke:#EC008C;stroke-width:0.75;stroke-miterlimit:10;" x1="-2253.268" y1="357.348" x2="-2253.268" y2="75.24"/>
		
			<line style="fill:none;stroke:#EC008C;stroke-width:0.75;stroke-miterlimit:10;" x1="-2071.22" y1="75.24" x2="-2071.22" y2="357.347"/>
		
			<line style="fill:none;stroke:#EC008C;stroke-width:0.75;stroke-miterlimit:10;" x1="-2253.268" y1="75.24" x2="-2253.268" y2="250.146"/>
		
			<line style="fill:none;stroke:#EC008C;stroke-width:0.75;stroke-miterlimit:10;" x1="-2071.22" y1="250.146" x2="-2071.22" y2="75.24"/>
	</g>
	<g style="display:inline;">
		
			<line style="fill:none;stroke:#97CA3D;stroke-width:0.75;stroke-miterlimit:10;" x1="-1772.234" y1="75.458" x2="-1772.234" y2="357.348"/>
		
			<line style="fill:none;stroke:#97CA3D;stroke-width:0.75;stroke-miterlimit:10;" x1="-2116.368" y1="357.347" x2="-2116.368" y2="75.458"/>
		
			<line style="fill:none;stroke:#97CA3D;stroke-width:0.75;stroke-miterlimit:10;" x1="-1558.87" y1="357.348" x2="-1558.87" y2="75.458"/>
		
			<line style="fill:none;stroke:#97CA3D;stroke-width:0.75;stroke-miterlimit:10;" x1="-1772.234" y1="75.458" x2="-1772.234" y2="357.348"/>
		
			<line style="fill:none;stroke:#97CA3D;stroke-width:0.75;stroke-miterlimit:10;" x1="-1558.87" y1="75.458" x2="-1558.87" y2="250.229"/>
		
			<line style="fill:none;stroke:#97CA3D;stroke-width:0.75;stroke-miterlimit:10;" x1="-1772.234" y1="250.229" x2="-1772.234" y2="75.458"/>
	</g>
	<g style="display:inline;">
		
			<line style="fill:none;stroke:#52C4F1;stroke-width:0.75;stroke-miterlimit:10;" x1="-1547.166" y1="260.596" x2="-2267.165" y2="260.596"/>
		
			<line style="fill:none;stroke:#52C4F1;stroke-width:0.75;stroke-miterlimit:10;" x1="-2267.164" y1="158.78" x2="-1547.165" y2="158.78"/>
		
			<line style="fill:none;stroke:#52C4F1;stroke-width:0.75;stroke-miterlimit:10;" x1="-2267.165" y1="323.721" x2="-1547.166" y2="323.721"/>
		
			<line style="fill:none;stroke:#52C4F1;stroke-width:0.75;stroke-miterlimit:10;" x1="-1547.166" y1="260.596" x2="-2267.165" y2="260.596"/>
	</g>
	<g style="display:inline;">
		
			<line style="fill:none;stroke:#52C4F1;stroke-width:0.75;stroke-miterlimit:10;" x1="-1547.166" y1="158.78" x2="-2267.165" y2="158.78"/>
		
			<line style="fill:none;stroke:#52C4F1;stroke-width:0.75;stroke-miterlimit:10;" x1="-2267.164" y1="260.596" x2="-1547.165" y2="260.596"/>
		
			<line style="fill:none;stroke:#52C4F1;stroke-width:0.75;stroke-miterlimit:10;" x1="-2267.165" y1="95.655" x2="-1547.166" y2="95.655"/>
		
			<line style="fill:none;stroke:#52C4F1;stroke-width:0.75;stroke-miterlimit:10;" x1="-1547.166" y1="158.78" x2="-2267.165" y2="158.78"/>
	</g>
	
		<line style="display:inline;fill:none;stroke:#EC008C;stroke-width:0.75;stroke-miterlimit:10;" x1="-1580.751" y1="323.721" x2="-1643.511" y2="323.721"/>
</g>
</svg>
