<?xml version="1.0" encoding="iso-8859-1"?>
<!-- Generator: Adobe Illustrator 26.2.1, SVG Export Plug-In . SVG Version: 6.00 Build 0)  -->
<svg version="1.1" id="Layer_1" xmlns="http://www.w3.org/2000/svg" xmlns:xlink="http://www.w3.org/1999/xlink" x="0px" y="0px"
	 viewBox="0 0 881.575 419.101" style="enable-background:new 0 0 881.575 419.101;" xml:space="preserve">
<g>
	<g>
		<linearGradient id="SVGID_1_" gradientUnits="userSpaceOnUse" x1="111.3614" y1="194.2247" x2="150.0634" y2="138.0276">
			<stop  offset="0.1511" style="stop-color:#E26268"/>
			<stop  offset="0.2624" style="stop-color:#DA5E64"/>
			<stop  offset="0.4217" style="stop-color:#CC575D"/>
			<stop  offset="0.6099" style="stop-color:#B64A51"/>
			<stop  offset="0.8183" style="stop-color:#973940"/>
			<stop  offset="1" style="stop-color:#79272F"/>
		</linearGradient>
		<path style="fill:url(#SVGID_1_);" d="M124.789,116.375c-16.307,18.829-27.458,49.133-29.223,83.884h52.468
			c1.753-24.756,9.896-41.827,15.767-49.054C150.354,130.432,132.756,120.338,124.789,116.375z"/>
	</g>
	
		<linearGradient id="SVGID_00000069399866012839511850000006276282290999612044_" gradientUnits="userSpaceOnUse" x1="210.1574" y1="138.82" x2="148.9433" y2="171.3568">
		<stop  offset="0" style="stop-color:#F9A57B"/>
		<stop  offset="1" style="stop-color:#EE2957"/>
	</linearGradient>
	<path style="fill:url(#SVGID_00000069399866012839511850000006276282290999612044_);" d="M179.566,200.259h52.468
		C229.07,141.92,199.663,96.099,163.8,96.099c-14.5,0-27.943,7.496-39.011,20.276c7.939,3.949,25.555,14.041,39.011,34.831
		C177.005,171.606,179.143,191.399,179.566,200.259z"/>
	<g>
		
			<linearGradient id="SVGID_00000102506745681241840100000003942242104022216098_" gradientUnits="userSpaceOnUse" x1="111.3615" y1="396.2937" x2="150.0635" y2="340.0966" gradientTransform="matrix(1 0 0 -1 0 621.943)">
			<stop  offset="0.1511" style="stop-color:#EC9C96"/>
			<stop  offset="0.3233" style="stop-color:#E6958F"/>
			<stop  offset="0.5696" style="stop-color:#DA837D"/>
			<stop  offset="0.8591" style="stop-color:#C96965"/>
			<stop  offset="1" style="stop-color:#C05959"/>
		</linearGradient>
		<path style="fill:url(#SVGID_00000102506745681241840100000003942242104022216098_);" d="M124.789,303.499
			c-16.307-18.829-27.458-49.133-29.223-83.884h52.468c1.753,24.756,9.896,41.827,15.767,49.054
			C150.354,289.442,132.756,299.536,124.789,303.499z"/>
	</g>
	
		<linearGradient id="SVGID_00000077314190006824524900000002472994152016766081_" gradientUnits="userSpaceOnUse" x1="218.8714" y1="336.2574" x2="157.6572" y2="368.7942" gradientTransform="matrix(1 0 0 -1 0 621.943)">
		<stop  offset="0" style="stop-color:#FED0A0"/>
		<stop  offset="1" style="stop-color:#F3757C"/>
	</linearGradient>
	<path style="fill:url(#SVGID_00000077314190006824524900000002472994152016766081_);" d="M179.566,219.615h52.468
		c-2.964,58.339-32.371,104.161-68.234,104.161c-14.5,0-27.943-7.496-39.011-20.276c7.939-3.949,25.555-14.041,39.011-34.831
		C177.005,248.268,179.143,228.475,179.566,219.615z"/>
	<g>
		<path style="fill:#0B0A0B;" d="M524.654,164.141v99.717c0,8.999-3.162,12.68-8.018,12.964H507.8v21.85
			c0,0,3.347,1.079,8.836,1.477c18.73,2.124,35.852-8.886,35.279-37.053v-98.954H524.654z"/>
		<path style="fill:#0B0A0B;" d="M474.04,165.039l26.513,0.101c0,31.267,0,62.076,0,93.343l-26.091-0.101l-0.22-11.721
			c-6.29,9.916-19.828,13.729-28.977,13.919c-28.217,0.19-48.619-18.112-48.619-49.189c0-31.267,21.541-49.572,49.379-49.192
			c11.822,0,22.878,4.576,27.837,12.965L474.04,165.039z M424.101,211.391c0,15.632,11.056,24.784,24.788,24.784
			c15.442,0,24.974-12.012,24.974-23.831c0-13.539-8.579-25.931-24.974-25.931C435.156,186.414,424.101,195.756,424.101,211.391z"/>
		<path d="M642.614,164.141v37.392v11.223c0,12.202-8.579,23.261-21.354,23.071c-13.155,0-19.445-7.436-19.445-21.925v-49.762
			h-27.647v49.952c0,36.607,18.115,46.139,39.276,46.139c10.843,0.18,20.999-2.734,29.17-12.617v10.711h2.29h24.784v-56.792v-37.392
			H642.614z"/>
		<path d="M346.645,259.789c13.111-2.598,23.495-10.142,29.745-21.25c4.897-7.811,7.755-17.164,7.755-27.224
			c0-10.409-3.058-20.061-8.27-28.031c-4.285-7.187-10.356-12.695-17.788-16.273c-6.302-3.309-13.404-5.179-20.924-5.179
			c-3.791,0-7.472,0.486-11.003,1.378c-3.922,0.85-7.687,2.298-11.202,4.492c-3.209,1.816-6.189,4.018-8.896,6.539v-12.048v-25.368
			h-27.808v25.368v96.686h24.739h3.068v-10.463c8.561,9.942,18.814,12.381,30.109,12.381c0.182,0,0.359-0.01,0.54-0.012
			c0.151,0.002,0.301,0.012,0.452,0.012c2.922,0,5.776-0.295,8.55-0.833c0.303-0.054,0.603-0.111,0.903-0.17
			C346.626,259.793,346.636,259.791,346.645,259.789z M355.131,210.179c0.002,0.042,0.001,0.086,0.003,0.128
			c0.013,0.364,0.021,0.731,0.021,1.101c-0.048,13.165-10.193,23.822-22.704,23.822c-12.541,0-22.707-10.707-22.707-23.915
			s10.166-23.915,22.707-23.915c12.052,0,21.906,9.891,22.655,22.386C355.115,209.917,355.126,210.047,355.131,210.179z"/>
		<path d="M718.231,258.344v-37.392v-11.223c0-12.202,8.579-23.261,21.354-23.071c13.155,0,19.445,7.436,19.445,21.925v49.762
			h27.647v-49.952c0-36.607-18.115-46.139-39.276-46.139c-10.843-0.18-20.999,2.734-29.17,12.617v-10.711h-2.29h-24.784v56.792
			v37.392H718.231z"/>
	</g>
</g>
</svg>
