<?xml version="1.0" encoding="iso-8859-1"?>
<!-- Generator: Adobe Illustrator 26.2.1, SVG Export Plug-In . SVG Version: 6.00 Build 0)  -->
<svg version="1.1" xmlns="http://www.w3.org/2000/svg" xmlns:xlink="http://www.w3.org/1999/xlink" x="0px" y="0px"
	 viewBox="0 0 881.575 419.101" style="enable-background:new 0 0 881.575 419.101;" xml:space="preserve">
<g id="Layer_3">
</g>
<g id="Layer_1">
	<g>
		<g>
			<linearGradient id="SVGID_1_" gradientUnits="userSpaceOnUse" x1="110.8437" y1="193.598" x2="149.5457" y2="137.4008">
				<stop  offset="0.1511" style="stop-color:#646464"/>
				<stop  offset="0.2923" style="stop-color:#5D5D5D"/>
				<stop  offset="0.4943" style="stop-color:#4A4A4A"/>
				<stop  offset="0.7327" style="stop-color:#2B2B2B"/>
				<stop  offset="0.9974" style="stop-color:#000000"/>
				<stop  offset="1" style="stop-color:#000000"/>
			</linearGradient>
			<path style="fill:url(#SVGID_1_);" d="M124.271,115.748c-16.307,18.829-27.458,49.133-29.223,83.884h52.468
				c1.753-24.756,9.896-41.827,15.767-49.054C149.836,129.805,132.238,119.711,124.271,115.748z"/>
		</g>
		
			<linearGradient id="SVGID_00000024699931006337238740000008955438726830869691_" gradientUnits="userSpaceOnUse" x1="209.6397" y1="138.1932" x2="148.4255" y2="170.7301">
			<stop  offset="0" style="stop-color:#D3D3D3"/>
			<stop  offset="1" style="stop-color:#575757"/>
		</linearGradient>
		<path style="fill:url(#SVGID_00000024699931006337238740000008955438726830869691_);" d="M179.049,199.633h52.468
			c-2.964-58.339-32.371-104.161-68.234-104.161c-14.5,0-27.943,7.496-39.011,20.276c7.939,3.949,25.555,14.041,39.011,34.831
			C176.487,170.98,178.625,190.772,179.049,199.633z"/>
		<g>
			
				<linearGradient id="SVGID_00000137826800598922295750000012837424082927786922_" gradientUnits="userSpaceOnUse" x1="110.8437" y1="396.9205" x2="149.5457" y2="340.7233" gradientTransform="matrix(1 0 0 -1 0 621.943)">
				<stop  offset="0.1511" style="stop-color:#1C1C1C"/>
				<stop  offset="0.6427" style="stop-color:#151515"/>
				<stop  offset="1" style="stop-color:#0D0D0D"/>
			</linearGradient>
			<path style="fill:url(#SVGID_00000137826800598922295750000012837424082927786922_);" d="M124.271,302.872
				c-16.307-18.829-27.458-49.133-29.223-83.884h52.468c1.753,24.756,9.896,41.827,15.767,49.054
				C149.837,288.816,132.238,298.909,124.271,302.872z"/>
		</g>
		
			<linearGradient id="SVGID_00000024712144763293676300000018415335472745427903_" gradientUnits="userSpaceOnUse" x1="209.6397" y1="341.5157" x2="148.4256" y2="374.0526" gradientTransform="matrix(1 0 0 -1 0 621.943)">
			<stop  offset="0" style="stop-color:#242424"/>
			<stop  offset="1" style="stop-color:#0D0D0D"/>
		</linearGradient>
		<path style="fill:url(#SVGID_00000024712144763293676300000018415335472745427903_);" d="M179.049,218.988h52.468
			c-2.964,58.339-32.371,104.161-68.234,104.161c-14.5,0-27.943-7.496-39.011-20.276c7.939-3.949,25.555-14.041,39.011-34.831
			C176.487,247.641,178.625,227.848,179.049,218.988z"/>
		<path style="fill:#F1F2F2;" d="M524.509,166.141v99.717c0,8.999-3.162,12.68-8.018,12.964h-8.836v21.85
			c0,0,3.347,1.079,8.836,1.477c18.73,2.124,35.852-8.886,35.279-37.053v-98.954H524.509z"/>
		<path style="fill:#F1F2F2;" d="M473.895,167.039l26.513,0.101c0,31.267,0,62.076,0,93.343l-26.091-0.101l-0.22-11.721
			c-6.29,9.916-19.828,13.729-28.977,13.919c-28.217,0.19-48.619-18.112-48.619-49.189c0-31.267,21.541-49.572,49.379-49.192
			c11.822,0,22.878,4.576,27.837,12.965L473.895,167.039z M423.955,213.391c0,15.632,11.056,24.784,24.788,24.784
			c15.442,0,24.974-12.012,24.974-23.831c0-13.539-8.579-25.931-24.974-25.931C435.011,188.414,423.955,197.756,423.955,213.391z"/>
		<path style="fill:#F1F2F2;" d="M642.468,166.141v37.392v11.223c0,12.202-8.579,23.261-21.354,23.071
			c-13.155,0-19.445-7.436-19.445-21.925v-49.762h-27.647v49.952c0,36.607,18.115,46.139,39.276,46.139
			c10.843,0.18,20.999-2.734,29.17-12.617v10.711h2.29h24.784v-56.792v-37.392H642.468z"/>
		<path style="fill:#F1F2F2;" d="M346.5,261.789c13.111-2.598,23.495-10.142,29.745-21.25c4.897-7.811,7.755-17.164,7.755-27.224
			c0-10.409-3.058-20.061-8.27-28.03c-4.285-7.187-10.356-12.696-17.788-16.273c-6.302-3.309-13.404-5.179-20.924-5.179
			c-3.791,0-7.472,0.486-11.003,1.378c-3.922,0.85-7.687,2.298-11.202,4.492c-3.209,1.816-6.189,4.018-8.896,6.539v-12.048v-25.368
			H278.11v25.368v96.686h24.739h3.068v-10.463c8.561,9.942,18.814,12.381,30.109,12.381c0.182,0,0.359-0.01,0.54-0.012
			c0.151,0.002,0.301,0.012,0.452,0.012c2.922,0,5.776-0.295,8.55-0.833c0.303-0.054,0.603-0.111,0.903-0.17
			C346.481,261.793,346.49,261.791,346.5,261.789z M354.986,212.179c0.002,0.042,0.001,0.086,0.003,0.128
			c0.013,0.364,0.021,0.731,0.021,1.101c-0.048,13.165-10.193,23.822-22.704,23.822c-12.541,0-22.707-10.707-22.707-23.915
			s10.166-23.915,22.707-23.915c12.052,0,21.906,9.891,22.655,22.386C354.969,211.917,354.98,212.047,354.986,212.179z"/>
		<path style="fill:#F1F2F2;" d="M718.231,260.325v-37.392v-11.223c0-12.202,8.579-23.261,21.354-23.071
			c13.155,0,19.445,7.436,19.445,21.925v49.762h27.647v-49.952c0-36.607-18.115-46.139-39.276-46.139
			c-10.843-0.18-20.999,2.734-29.17,12.617V166.14h-2.29h-24.784v56.792v37.392H718.231z"/>
	</g>
</g>
<g id="Layer_2" style="display:none;">
	<g style="display:inline;">
		
			<line style="fill:none;stroke:#EC008C;stroke-width:0.75;stroke-miterlimit:10;" x1="-2071.22" y1="75.24" x2="-2071.22" y2="357.347"/>
		
			<line style="fill:none;stroke:#EC008C;stroke-width:0.75;stroke-miterlimit:10;" x1="-1777.594" y1="357.347" x2="-1777.594" y2="75.24"/>
		
			<line style="fill:none;stroke:#EC008C;stroke-width:0.75;stroke-miterlimit:10;" x1="-2253.268" y1="357.348" x2="-2253.268" y2="75.24"/>
		
			<line style="fill:none;stroke:#EC008C;stroke-width:0.75;stroke-miterlimit:10;" x1="-2071.22" y1="75.24" x2="-2071.22" y2="357.347"/>
		
			<line style="fill:none;stroke:#EC008C;stroke-width:0.75;stroke-miterlimit:10;" x1="-2253.268" y1="75.24" x2="-2253.268" y2="250.146"/>
		
			<line style="fill:none;stroke:#EC008C;stroke-width:0.75;stroke-miterlimit:10;" x1="-2071.22" y1="250.146" x2="-2071.22" y2="75.24"/>
	</g>
	<g style="display:inline;">
		
			<line style="fill:none;stroke:#97CA3D;stroke-width:0.75;stroke-miterlimit:10;" x1="-1772.234" y1="75.458" x2="-1772.234" y2="357.348"/>
		
			<line style="fill:none;stroke:#97CA3D;stroke-width:0.75;stroke-miterlimit:10;" x1="-2116.368" y1="357.347" x2="-2116.368" y2="75.458"/>
		
			<line style="fill:none;stroke:#97CA3D;stroke-width:0.75;stroke-miterlimit:10;" x1="-1558.87" y1="357.348" x2="-1558.87" y2="75.458"/>
		
			<line style="fill:none;stroke:#97CA3D;stroke-width:0.75;stroke-miterlimit:10;" x1="-1772.234" y1="75.458" x2="-1772.234" y2="357.348"/>
		
			<line style="fill:none;stroke:#97CA3D;stroke-width:0.75;stroke-miterlimit:10;" x1="-1558.87" y1="75.458" x2="-1558.87" y2="250.229"/>
		
			<line style="fill:none;stroke:#97CA3D;stroke-width:0.75;stroke-miterlimit:10;" x1="-1772.234" y1="250.229" x2="-1772.234" y2="75.458"/>
	</g>
	<g style="display:inline;">
		
			<line style="fill:none;stroke:#52C4F1;stroke-width:0.75;stroke-miterlimit:10;" x1="-1547.166" y1="260.596" x2="-2267.165" y2="260.596"/>
		
			<line style="fill:none;stroke:#52C4F1;stroke-width:0.75;stroke-miterlimit:10;" x1="-2267.164" y1="158.78" x2="-1547.165" y2="158.78"/>
		
			<line style="fill:none;stroke:#52C4F1;stroke-width:0.75;stroke-miterlimit:10;" x1="-2267.165" y1="323.721" x2="-1547.166" y2="323.721"/>
		
			<line style="fill:none;stroke:#52C4F1;stroke-width:0.75;stroke-miterlimit:10;" x1="-1547.166" y1="260.596" x2="-2267.165" y2="260.596"/>
	</g>
	<g style="display:inline;">
		
			<line style="fill:none;stroke:#52C4F1;stroke-width:0.75;stroke-miterlimit:10;" x1="-1547.166" y1="158.78" x2="-2267.165" y2="158.78"/>
		
			<line style="fill:none;stroke:#52C4F1;stroke-width:0.75;stroke-miterlimit:10;" x1="-2267.164" y1="260.596" x2="-1547.165" y2="260.596"/>
		
			<line style="fill:none;stroke:#52C4F1;stroke-width:0.75;stroke-miterlimit:10;" x1="-2267.165" y1="95.655" x2="-1547.166" y2="95.655"/>
		
			<line style="fill:none;stroke:#52C4F1;stroke-width:0.75;stroke-miterlimit:10;" x1="-1547.166" y1="158.78" x2="-2267.165" y2="158.78"/>
	</g>
	
		<line style="display:inline;fill:none;stroke:#EC008C;stroke-width:0.75;stroke-miterlimit:10;" x1="-1580.751" y1="323.721" x2="-1643.511" y2="323.721"/>
</g>
</svg>
