<?xml version="1.0" encoding="iso-8859-1"?>
<!-- Generator: Adobe Illustrator 26.2.1, SVG Export Plug-In . SVG Version: 6.00 Build 0)  -->
<svg version="1.1" id="Layer_1" xmlns="http://www.w3.org/2000/svg" xmlns:xlink="http://www.w3.org/1999/xlink" x="0px" y="0px"
	 viewBox="0 0 409.408 501.079" style="enable-background:new 0 0 409.408 501.079;" xml:space="preserve">
<g>
	<g>
		<linearGradient id="SVGID_1_" gradientUnits="userSpaceOnUse" x1="152.2651" y1="234.5952" x2="190.9671" y2="178.3981">
			<stop  offset="0.1511" style="stop-color:#646464"/>
			<stop  offset="0.2923" style="stop-color:#5D5D5D"/>
			<stop  offset="0.4943" style="stop-color:#4A4A4A"/>
			<stop  offset="0.7327" style="stop-color:#2B2B2B"/>
			<stop  offset="0.9974" style="stop-color:#000000"/>
			<stop  offset="1" style="stop-color:#000000"/>
		</linearGradient>
		<path style="fill:url(#SVGID_1_);" d="M165.693,156.746c-16.307,18.829-27.458,49.133-29.223,83.884h52.468
			c1.753-24.756,9.896-41.827,15.767-49.054C191.258,170.802,173.659,160.709,165.693,156.746z"/>
	</g>
	
		<linearGradient id="SVGID_00000035495975380325670620000012296068207761498013_" gradientUnits="userSpaceOnUse" x1="251.0612" y1="179.1905" x2="189.847" y2="211.7273">
		<stop  offset="0" style="stop-color:#D3D3D3"/>
		<stop  offset="1" style="stop-color:#575757"/>
	</linearGradient>
	<path style="fill:url(#SVGID_00000035495975380325670620000012296068207761498013_);" d="M220.47,240.63h52.468
		c-2.964-58.339-32.371-104.161-68.234-104.161c-14.5,0-27.943,7.496-39.011,20.276c7.939,3.949,25.555,14.041,39.011,34.831
		C217.909,211.977,220.047,231.769,220.47,240.63z"/>
	<g>
		
			<linearGradient id="SVGID_00000180330913778193945350000017273168808363762608_" gradientUnits="userSpaceOnUse" x1="152.2652" y1="355.9232" x2="190.9672" y2="299.7261" gradientTransform="matrix(1 0 0 -1 0 621.943)">
			<stop  offset="0.1511" style="stop-color:#B3B3B3"/>
			<stop  offset="0.3187" style="stop-color:#ACACAC"/>
			<stop  offset="0.5583" style="stop-color:#999999"/>
			<stop  offset="0.8398" style="stop-color:#7B7B7B"/>
			<stop  offset="1" style="stop-color:#666666"/>
		</linearGradient>
		<path style="fill:url(#SVGID_00000180330913778193945350000017273168808363762608_);" d="M165.693,343.869
			c-16.307-18.829-27.458-49.133-29.223-83.884h52.468c1.753,24.756,9.896,41.827,15.767,49.054
			C191.258,329.813,173.659,339.906,165.693,343.869z"/>
	</g>
	
		<linearGradient id="SVGID_00000128460202669592956300000008788137978675771530_" gradientUnits="userSpaceOnUse" x1="259.7751" y1="295.8868" x2="198.561" y2="328.4237" gradientTransform="matrix(1 0 0 -1 0 621.943)">
		<stop  offset="0.0564" style="stop-color:#EEEEEE"/>
		<stop  offset="0.796" style="stop-color:#B1B1B1"/>
	</linearGradient>
	<path style="fill:url(#SVGID_00000128460202669592956300000008788137978675771530_);" d="M220.47,259.985h52.468
		c-2.964,58.339-32.371,104.161-68.234,104.161c-14.5,0-27.943-7.496-39.011-20.276c7.939-3.949,25.555-14.041,39.011-34.831
		C217.909,288.638,220.047,268.846,220.47,259.985z"/>
</g>
</svg>
