<?xml version="1.0" encoding="iso-8859-1"?>
<!-- Generator: Adobe Illustrator 26.2.1, SVG Export Plug-In . SVG Version: 6.00 Build 0)  -->
<svg version="1.1" id="Layer_7" xmlns="http://www.w3.org/2000/svg" xmlns:xlink="http://www.w3.org/1999/xlink" x="0px" y="0px"
	 viewBox="0 0 1264.814 595.276" style="enable-background:new 0 0 1264.814 595.276;" xml:space="preserve">
<g>
	<g>
		<g>
			<path style="fill:#2A0F0F;" d="M230.581,309.525c-12.585-2.832-19.211-9.686-19.211-9.686l1.547,5.132
				c1.306,4.333,3.898,8.167,7.431,10.994l1.484,1.187c0,0,60.571,14.975,68.966,24.5c0,0-3.002-6.54-6.385-10.971
				c-1.195-1.566-2.785-2.776-4.614-3.509C271.33,323.778,241.605,312.006,230.581,309.525z"/>
		</g>
		<g>
			<path style="fill:#2A0F0F;" d="M294.995,362.477c-1.966-3.145-7.763-8.566-11.996-12.324c-3.064-2.72-6.692-4.715-10.629-5.85
				c-9.203-2.654-26.83-7.576-34.524-8.625c-9.132-1.245-18.857-4.507-21.45-5.413c-0.029-0.01-0.058-0.015-0.085-0.015
				c-0.189,0-0.326,0.221-0.218,0.403c5.05,8.535,10.13,10.999,10.13,10.999c4.33,10.325,10.146,17.139,13.357,20.387
				c1.399,1.416,3.118,2.46,5.014,3.069c4.977,1.602,15.707,4.992,20.698,6.087c3.504,0.769,7.597,0.95,10.673,0.95
				c2.734,0,4.664-0.143,4.664-0.143c4.204-0.97,7.33-2.691,9.585-4.406l-0.007,0.015c4.817-0.759,2.772,1.002,2.772,1.002
				s-7.669,4.036-11.633,5.892c-3.965,1.857-9.192,0.807-9.192,0.807l-19.695-3.632c2.583,2.664,14.691,5.892,20.341,7.103
				c5.65,1.211,8.547-0.404,8.547-0.404s11.068-4.036,16.073-6.234c5.005-2.198,3.067-6.923,3.067-6.923
				c-1.776-8.637-4.355-15.014-4.355-15.014l-1.618-1.776c0,0,1.533,11.624,1.615,13.4
				C296.206,363.607,294.995,362.477,294.995,362.477z M273.948,367.226c-0.249-0.007-0.501-0.012-0.745-0.022
				c-2.852-0.466-17.942-3.099-30.094-8.553c-0.008-0.008-0.019-0.015-0.027-0.024c-0.108-0.178-4.242-6.999-5.318-9.549
				c0,0-0.885-5.2,1.294-5.2c0.1,0,0.207,0.011,0.321,0.034c2.583,0.525,28.219,5.776,40.763,13.641
				C280.143,357.553,285.379,364.981,273.948,367.226z"/>
		</g>
		<g>
			<path style="fill:#2A0F0F;" d="M240.967,185.271l-40.839-45.657c-0.804-0.903-1.823-1.587-2.963-1.989l-1.007-0.355
				l36.078,60.239L240.967,185.271z"/>
		</g>
		<g>
			<path style="fill:#2A0F0F;" d="M238.289,258.908l3.096,10.892c0.488,1.716,1.821,3.063,3.532,3.568l13.379,3.955
				c1.579,0.467,3.27,0.384,4.796-0.234l3.616-1.466l-10.834-5.834c-3.408-1.835-6.414-7.229-5.041-10.848l9.902-18.35l0.148,4.975
				c0.234,1.705,0.914,3.311,1.971,4.669c1.412,1.813,3.112,3.751,5.145,5.693c4.289,4.095,8.583,6.798,11.947,8.556
				c-2.41-3.851-5.086-8.982-7.104-15.337c-1.215-3.827-1.962-7.376-2.422-10.493v-11.444l-1.453-4.7l-13.639,8.066
				c-0.064,0.038-0.122,0.084-0.185,0.124l-11.138,15.612l-4.893,7.339C238.082,255.198,237.78,257.119,238.289,258.908z"/>
		</g>
		<g>
			<path style="fill:#2A0F0F;" d="M431.605,317.152l1.484-1.187c3.534-2.827,6.125-6.661,7.431-10.994l1.547-5.132
				c0,0-6.626,6.855-19.211,9.686c-11.024,2.48-40.749,14.252-49.218,17.647c-1.828,0.733-3.418,1.943-4.614,3.509
				c-3.383,4.43-6.385,10.971-6.385,10.971C371.034,332.127,431.605,317.152,431.605,317.152z"/>
		</g>
		<g>
			<path style="fill:#2A0F0F;" d="M356.019,372.145c5.005,2.198,16.073,6.234,16.073,6.234s2.896,1.614,8.547,0.404
				c5.651-1.211,17.758-4.44,20.341-7.103l-19.695,3.632c0,0-5.227,1.049-9.192-0.807c-3.965-1.857-11.633-5.892-11.633-5.892
				s-2.045-1.761,2.771-1.002l-0.007-0.015c2.256,1.715,5.382,3.436,9.586,4.406c0,0,1.93,0.143,4.664,0.143
				c3.076,0,7.168-0.181,10.673-0.95c4.99-1.096,15.72-4.486,20.698-6.087c1.895-0.61,3.614-1.654,5.014-3.069
				c3.21-3.248,9.027-10.061,13.357-20.387c0,0,5.081-2.463,10.13-10.999c0.108-0.182-0.029-0.403-0.218-0.403
				c-0.027,0-0.056,0.005-0.085,0.015c-2.593,0.907-12.318,4.168-21.45,5.413c-7.694,1.049-25.321,5.971-34.524,8.625
				c-3.937,1.135-7.565,3.13-10.629,5.85c-4.234,3.758-10.03,9.179-11.996,12.324c0,0-1.21,1.13-1.13-0.646
				c0.081-1.776,1.615-13.4,1.615-13.4l-1.619,1.776c0,0-2.579,6.377-4.355,15.014C352.952,365.222,351.015,369.947,356.019,372.145
				z M373.294,357.553c12.545-7.865,38.18-13.117,40.764-13.641c0.114-0.023,0.22-0.034,0.321-0.034c2.178,0,1.294,5.2,1.294,5.2
				c-1.076,2.549-5.209,9.369-5.317,9.549c-0.008,0.008-0.019,0.015-0.027,0.024c-12.152,5.453-27.241,8.087-30.094,8.553
				c-0.243,0.01-0.496,0.015-0.745,0.022C368.058,364.981,373.294,357.553,373.294,357.553z"/>
		</g>
		<g>
			<path style="fill:#2A0F0F;" d="M390.583,250.235c1.057-1.358,1.738-2.964,1.972-4.669l-0.085-5.621l10.135,18.996
				c1.373,3.619-1.632,9.013-5.041,10.848l-10.835,5.834l3.617,1.466c1.526,0.619,3.217,0.701,4.796,0.234l13.379-3.955
				c1.711-0.506,3.043-1.852,3.531-3.568l3.097-10.892c0.509-1.789,0.207-3.71-0.824-5.258l-4.893-7.339l-11.138-15.612
				c-0.063-0.04-0.121-0.086-0.185-0.124l-13.639-8.066l-1.453,4.7v11.444c-0.46,3.117-1.207,6.667-2.422,10.493
				c-2.017,6.355-4.693,11.486-7.104,15.337c3.363-1.758,7.658-4.461,11.947-8.556C387.471,253.986,389.171,252.048,390.583,250.235
				z"/>
		</g>
		<g>
			<path style="fill:#2A0F0F;" d="M455.811,137.27l-1.007,0.355c-1.14,0.402-2.159,1.087-2.963,1.989l-40.839,45.657l8.731,12.238
				L455.811,137.27z"/>
		</g>
		<g>
			<path style="fill:#2A0F0F;" d="M475.182,281.798l21.149-74.716c1.877-7.151,2.021-14.691,0.431-21.855l-12.73-57.347
				c-1.457-6.563-4.369-12.716-8.522-18.003l-23.842-30.358c-1.225-1.56-3.569-1.616-4.866-0.116l-71.4,78.757l-7.83-5.591
				c-1.852-1.323-3.98-2.207-6.224-2.587l-26.114-4.424h-8.515h-1.467h-8.515l-26.114,4.424c-2.244,0.38-4.372,1.264-6.224,2.587
				l-7.718,5.512l-71.512-78.678c-1.298-1.5-3.641-1.444-4.866,0.116l-23.842,30.358c-4.153,5.287-7.065,11.44-8.522,18.003
				l-12.73,57.347c-1.59,7.164-1.447,14.703,0.431,21.855l21.149,74.716l5.403,4.731l1.951,20.99l-19.451-4.896h-7.582
				l14.458,36.101c0.001-0.001,0.001-0.002,0.002-0.002l-0.002,0.002l32.187,46.376c2.587,3.772,6.222,6.593,10.514,8.159
				c20.998,7.657,90.268,32.365,111.472,33.139v0.019h0.244h0.244v-0.019c21.204-0.773,90.473-25.482,111.471-33.139
				c4.292-1.566,7.927-4.387,10.514-8.159l32.187-46.376l14.458-36.101h-7.582l-19.451,4.896l1.951-20.99L475.182,281.798z
				 M458.491,272.86l-3.663,39.779l-5.552,10.773c-0.387,0.945,0.419,1.946,1.425,1.77l16.762-3.606l6.469-0.831l-3.178,4.457
				l-23.95,34.36c-0.131,0.191-0.271,0.373-0.41,0.555l-0.151,0.198l-10.93,15.939c-0.732,1.067-1.759,1.865-2.971,2.308
				c-25.607,9.337-49.306,17.337-68.536,23.136c-8.169,2.5-15.294,4.495-21.178,5.927c-0.934,0.234-1.839,0.455-2.713,0.664v-0.019
				l-1.189,0.262c-5.443,1.204-9.712,1.852-12.742,1.944c-3.029-0.092-7.299-0.741-12.742-1.944l-1.189-0.262v0.019
				c-0.874-0.209-1.779-0.431-2.713-0.664c-5.884-1.432-13.008-3.426-21.178-5.927c-19.229-5.799-42.929-13.799-68.535-23.136
				c-1.212-0.442-2.239-1.24-2.971-2.308l-10.93-15.939l-0.15-0.198c-0.14-0.182-0.279-0.365-0.41-0.555l-23.951-34.36
				c-1.059-1.486-2.119-2.972-3.178-4.457l6.469,0.831l16.762,3.606c1.006,0.176,1.812-0.825,1.425-1.77l-5.553-10.773
				l-3.663-39.779l14.574-40.76l-20.656,32.834l-17.588-61.628c-1.274-4.852-1.372-10.005-0.285-14.902l12.008-54.091
				c1.457-6.563,4.369-12.716,8.522-18.003l10.798-13.749c1.225-1.56,3.568-1.616,4.866-0.116l58.767,64.344l-17.648,12.601
				l52.717-18.15l16.653-2.011h9.046h1.467h9.046l16.654,2.011l52.717,18.15l-17.648-12.601l58.767-64.344
				c1.298-1.5,3.641-1.444,4.866,0.116l10.798,13.749c4.153,5.288,7.065,11.44,8.522,18.003l12.007,54.091
				c1.087,4.897,0.989,10.05-0.285,14.902l-17.588,61.628l-20.656-32.834L458.491,272.86z"/>
		</g>
	</g>
	<path style="fill:#2A0F0F;" d="M510.059,140.01l13.895,64.926l-7.885,11.051l-16.211,57.273l95.069-133.249L510.059,140.01z
		 M530.542,160.076h25.419l-19.554,27.407L530.542,160.076z"/>
	<path style="fill:#2A0F0F;" d="M152.111,273.261L135.9,215.988l-7.885-11.051l13.896-64.927H57.041L152.111,273.261z
		 M115.563,187.483l-19.555-27.407h25.42L115.563,187.483z"/>
	<path style="fill:#2A0F0F;" d="M352.059,445.867l-3.244,4.547h-45.66l-3.245-4.548c-8.691-2.2-19.111-5.195-31.009-8.913
		l57.084,80.01l57.084-80.009C371.172,440.673,360.752,443.667,352.059,445.867z M325.985,482.413l-11.536-16.17h23.072
		L325.985,482.413z"/>
</g>
<g>
	<path style="fill:#2A0F0F;" d="M731.036,444.211h-28.014l-3.327-12.128h-21.467l-3.22,12.128h-28.122l25.331-72.558h33.381
		L731.036,444.211z M682.844,415.124h12.236l-6.118-22.325L682.844,415.124z"/>
	<path style="fill:#2A0F0F;" d="M724.157,371.654h28.551l12.236,48.193l12.343-48.193h28.658l-21.896,72.558h-38.21L724.157,371.654
		z"/>
	<path style="fill:#2A0F0F;" d="M883.108,444.211h-28.014l-3.327-12.128H830.3l-3.22,12.128h-28.122l25.331-72.558h33.381
		L883.108,444.211z M834.915,415.124h12.236l-6.118-22.325L834.915,415.124z"/>
	<path style="fill:#2A0F0F;" d="M924.852,444.211h-28.014V392.37h-20.608v-20.716h69.23v20.716h-20.608V444.211z"/>
	<path style="fill:#2A0F0F;" d="M1022.732,444.211h-28.014l-3.327-12.128h-21.467l-3.22,12.128h-28.122l25.331-72.558h33.381
		L1022.732,444.211z M974.539,415.124h12.236l-6.118-22.325L974.539,415.124z"/>
	<path style="fill:#2A0F0F;" d="M1098.499,444.211h-27.8c-4.401-22.754-7.835-22.648-16.207-22.648v22.648h-26.941v-71.806
		c6.226-1.073,18.247-2.146,27.907-2.146c20.823,0,41.324,5.045,41.324,25.223c0,11.27-7.406,16.207-13.31,18.89
		C1089.59,415.553,1095.493,422.208,1098.499,444.211z M1069.626,397.092c0-6.01-7.299-7.298-12.021-7.298
		c-1.288,0-2.362,0.107-3.22,0.214v14.49c0.751,0.108,1.503,0.108,2.469,0.108C1061.469,404.606,1069.626,403.532,1069.626,397.092z
		"/>
	<path style="fill:#2A0F0F;" d="M1166.322,419.847c0,17.817-12.45,25.759-31.556,25.759c-12.987,0-22.004-2.254-30.161-5.473
		l4.401-19.643c6.869,3.327,13.631,5.904,23.935,5.904c4.615,0,6.011-1.181,6.011-2.683c0-5.367-34.347-0.967-34.132-28.444
		c0.107-16.207,12.451-25.008,30.912-25.008c10.196,0,19.749,1.824,27.799,4.186l-4.401,19.535
		c-4.723-2.147-12.987-4.294-21.466-4.294c-3.649,0-6.011,0.536-6.011,2.683C1131.653,397.629,1166.322,394.194,1166.322,419.847z"
		/>
</g>
<g>
	<path style="fill:#2A0F0F;" d="M721.635,215.703H696.75l-2.955-10.774h-19.068l-2.861,10.774h-24.979l22.501-64.452h29.651
		L721.635,215.703z M678.826,189.864h10.869l-5.434-19.831L678.826,189.864z"/>
	<path style="fill:#2A0F0F;" d="M822.128,151.25l-14.397,64.452h-30.318l-7.627-36.231l-7.723,36.231h-30.128l-14.396-64.452h24.598
		l6.483,43.859l9.725-43.859h22.691l9.82,43.859l6.578-43.859H822.128z"/>
	<path style="fill:#2A0F0F;" d="M852.164,169.366v5.625h25.361v16.78h-25.361v5.912h28.984v18.019h-53.201V151.25h53.201v18.116
		H852.164z"/>
	<path style="fill:#2A0F0F;" d="M943.217,194.06c0,15.827-11.06,22.882-28.031,22.882c-11.536,0-19.545-2.002-26.791-4.863
		l3.909-17.447c6.102,2.955,12.109,5.243,21.262,5.243c4.1,0,5.339-1.049,5.339-2.384c0-4.767-30.51-0.857-30.319-25.264
		c0.096-14.398,11.06-22.216,27.459-22.216c9.057,0,17.543,1.622,24.693,3.72l-3.909,17.351c-4.195-1.906-11.536-3.814-19.068-3.814
		c-3.242,0-5.339,0.476-5.339,2.384C912.421,174.325,943.217,171.274,943.217,194.06z"/>
	<path style="fill:#2A0F0F;" d="M1021.208,183.477c0,20.878-14.778,33.464-36.421,33.464c-21.738,0-36.516-12.586-36.516-33.464
		c0-20.88,14.778-33.466,36.516-33.466C1006.43,150.011,1021.208,162.597,1021.208,183.477z M996.133,183.477
		c0-9.535-3.814-14.971-11.346-14.971c-7.627,0-11.441,5.435-11.441,14.971c0,9.533,3.814,14.968,11.441,14.968
		C992.319,198.446,996.133,193.011,996.133,183.477z"/>
	<path style="fill:#2A0F0F;" d="M1102.059,151.25v64.452h-23.168v-32.894l-12.967,20.594h-0.572l-12.871-20.594v32.894h-23.168
		V151.25h24.98l11.346,21.07l11.441-21.07H1102.059z"/>
	<path style="fill:#2A0F0F;" d="M1137.338,169.366v5.625h25.361v16.78h-25.361v5.912h28.984v18.019h-53.201V151.25h53.201v18.116
		H1137.338z"/>
</g>
<g>
	<path style="fill:#2A0F0F;" d="M758.273,341.802h-37.081l-4.404-16.054h-28.415l-4.262,16.054h-37.224l33.53-96.042h44.185
		L758.273,341.802z M694.482,303.3h16.197l-8.099-29.552L694.482,303.3z"/>
	<path style="fill:#2A0F0F;" d="M789.811,245.76h36.797v56.261c0,26.71-12.787,41.629-41.486,41.629
		c-9.945,0-15.778-1.006-23.45-4.353l5.698-25.693c2.058,0.546,4.682,1.205,8.518,1.205c8.098,0,13.924-1.563,13.924-10.798V245.76z
		"/>
	<path style="fill:#2A0F0F;" d="M933.878,245.76v58.108c0,27.278-17.333,39.781-46.458,39.781s-46.316-12.503-46.316-39.781V245.76
		h37.082v57.682c0,6.82,1.421,11.934,9.235,11.934c7.956,0,9.377-5.256,9.377-11.934V245.76H933.878z"/>
	<path style="fill:#2A0F0F;" d="M1048.537,245.76v96.042h-35.092l-30.12-49.3v49.3h-33.956V245.76h36.94l28.273,49.015V245.76
		H1048.537z"/>
	<path style="fill:#2A0F0F;" d="M1166.322,341.802h-37.081l-4.404-16.054h-28.415l-4.262,16.054h-37.224l33.53-96.042h44.185
		L1166.322,341.802z M1102.531,303.3h16.196l-8.098-29.552L1102.531,303.3z"/>
</g>
</svg>
