<?xml version="1.0" encoding="iso-8859-1"?>
<!-- Generator: Adobe Illustrator 26.2.1, SVG Export Plug-In . SVG Version: 6.00 Build 0)  -->
<svg version="1.1" id="Layer_1" xmlns="http://www.w3.org/2000/svg" xmlns:xlink="http://www.w3.org/1999/xlink" x="0px" y="0px"
	 viewBox="0 0 400 400" style="enable-background:new 0 0 400 400;" xml:space="preserve">
<g>
	<g>
		<path style="fill:#2A0F0F;" d="M104.596,257.161c-12.585-2.832-19.211-9.686-19.211-9.686l1.547,5.132
			c1.306,4.333,3.898,8.167,7.431,10.994l1.484,1.187c0,0,60.571,14.975,68.966,24.5c0,0-3.002-6.54-6.385-10.971
			c-1.195-1.566-2.785-2.776-4.614-3.509C145.345,271.414,115.62,259.642,104.596,257.161z"/>
	</g>
	<g>
		<path style="fill:#2A0F0F;" d="M169.011,310.113c-1.966-3.145-7.763-8.566-11.996-12.324c-3.064-2.72-6.692-4.715-10.629-5.85
			c-9.203-2.654-26.83-7.576-34.524-8.625c-9.132-1.245-18.857-4.507-21.45-5.413c-0.029-0.01-0.058-0.015-0.085-0.015
			c-0.189,0-0.326,0.221-0.218,0.403c5.05,8.535,10.13,10.999,10.13,10.999c4.33,10.325,10.146,17.139,13.357,20.387
			c1.399,1.416,3.118,2.46,5.014,3.07c4.977,1.602,15.707,4.992,20.698,6.087c3.504,0.769,7.597,0.95,10.673,0.95
			c2.734,0,4.664-0.143,4.664-0.143c4.204-0.97,7.33-2.691,9.586-4.406l-0.007,0.015c4.817-0.759,2.772,1.002,2.772,1.002
			s-7.669,4.036-11.633,5.892c-3.965,1.857-9.192,0.807-9.192,0.807l-19.695-3.632c2.583,2.664,14.691,5.892,20.341,7.103
			c5.65,1.211,8.547-0.404,8.547-0.404s11.068-4.036,16.073-6.234c5.005-2.198,3.067-6.923,3.067-6.923
			c-1.776-8.637-4.355-15.014-4.355-15.014l-1.618-1.776c0,0,1.533,11.624,1.615,13.399
			C170.221,311.243,169.011,310.113,169.011,310.113z M147.963,314.862c-0.249-0.007-0.501-0.012-0.745-0.022
			c-2.853-0.466-17.942-3.099-30.094-8.553c-0.008-0.008-0.019-0.015-0.027-0.024c-0.108-0.178-4.242-6.999-5.318-9.549
			c0,0-0.885-5.2,1.294-5.2c0.1,0,0.207,0.011,0.321,0.034c2.583,0.525,28.219,5.776,40.763,13.641
			C154.158,305.189,159.394,312.617,147.963,314.862z"/>
	</g>
	<g>
		<path style="fill:#2A0F0F;" d="M114.983,132.907L74.144,87.251c-0.804-0.903-1.823-1.587-2.963-1.989l-1.007-0.355l36.078,60.239
			L114.983,132.907z"/>
	</g>
	<g>
		<path style="fill:#2A0F0F;" d="M112.304,206.544l3.096,10.892c0.488,1.716,1.821,3.063,3.532,3.568l13.379,3.955
			c1.579,0.467,3.27,0.384,4.796-0.234l3.616-1.466l-10.834-5.834c-3.408-1.835-6.414-7.229-5.041-10.848l9.902-18.35l0.148,4.975
			c0.234,1.705,0.914,3.311,1.971,4.669c1.412,1.813,3.112,3.751,5.145,5.693c4.289,4.095,8.583,6.798,11.947,8.556
			c-2.41-3.851-5.086-8.982-7.104-15.337c-1.215-3.827-1.962-7.376-2.422-10.494v-11.444l-1.453-4.7l-13.639,8.066
			c-0.064,0.038-0.122,0.084-0.185,0.124l-11.138,15.612l-4.893,7.339C112.097,202.834,111.795,204.755,112.304,206.544z"/>
	</g>
	<g>
		<path style="fill:#2A0F0F;" d="M305.62,264.788l1.484-1.187c3.534-2.827,6.125-6.661,7.431-10.994l1.547-5.132
			c0,0-6.626,6.855-19.211,9.686c-11.024,2.48-40.749,14.252-49.218,17.647c-1.828,0.733-3.418,1.943-4.614,3.509
			c-3.383,4.43-6.385,10.971-6.385,10.971C245.049,279.763,305.62,264.788,305.62,264.788z"/>
	</g>
	<g>
		<path style="fill:#2A0F0F;" d="M230.035,319.781c5.005,2.198,16.073,6.234,16.073,6.234s2.896,1.614,8.547,0.404
			c5.651-1.211,17.758-4.44,20.341-7.103l-19.695,3.632c0,0-5.227,1.049-9.192-0.807c-3.965-1.857-11.633-5.892-11.633-5.892
			s-2.045-1.761,2.771-1.002l-0.007-0.015c2.256,1.715,5.382,3.436,9.586,4.406c0,0,1.93,0.143,4.664,0.143
			c3.076,0,7.168-0.181,10.673-0.95c4.99-1.096,15.72-4.486,20.698-6.087c1.895-0.61,3.614-1.654,5.014-3.07
			c3.21-3.248,9.027-10.061,13.357-20.387c0,0,5.081-2.463,10.13-10.999c0.108-0.182-0.029-0.403-0.218-0.403
			c-0.027,0-0.056,0.005-0.085,0.015c-2.593,0.907-12.318,4.168-21.45,5.413c-7.694,1.049-25.321,5.971-34.524,8.625
			c-3.937,1.135-7.565,3.13-10.629,5.85c-4.234,3.758-10.03,9.179-11.996,12.324c0,0-1.21,1.13-1.13-0.646
			c0.081-1.776,1.615-13.399,1.615-13.399l-1.619,1.776c0,0-2.579,6.377-4.355,15.014
			C226.967,312.858,225.03,317.583,230.035,319.781z M247.309,305.189c12.545-7.865,38.18-13.117,40.764-13.641
			c0.114-0.023,0.22-0.034,0.321-0.034c2.178,0,1.294,5.2,1.294,5.2c-1.076,2.549-5.209,9.369-5.317,9.549
			c-0.008,0.008-0.019,0.016-0.027,0.024c-12.152,5.453-27.241,8.087-30.094,8.553c-0.243,0.01-0.496,0.015-0.745,0.022
			C242.073,312.617,247.309,305.189,247.309,305.189z"/>
	</g>
	<g>
		<path style="fill:#2A0F0F;" d="M264.598,197.871c1.057-1.358,1.737-2.964,1.972-4.669l-0.085-5.621l10.135,18.996
			c1.373,3.619-1.632,9.013-5.041,10.848l-10.835,5.834l3.617,1.466c1.526,0.619,3.217,0.701,4.796,0.234l13.379-3.955
			c1.711-0.506,3.043-1.852,3.531-3.568l3.097-10.892c0.509-1.789,0.207-3.71-0.824-5.258l-4.893-7.339l-11.138-15.612
			c-0.063-0.04-0.121-0.086-0.185-0.124l-13.639-8.066l-1.453,4.7v11.444c-0.46,3.117-1.207,6.667-2.422,10.494
			c-2.017,6.355-4.693,11.486-7.104,15.337c3.363-1.758,7.658-4.461,11.947-8.556C261.486,201.622,263.186,199.684,264.598,197.871z
			"/>
	</g>
	<g>
		<path style="fill:#2A0F0F;" d="M329.826,84.906l-1.007,0.355c-1.14,0.402-2.159,1.087-2.963,1.989l-40.839,45.657l8.731,12.238
			L329.826,84.906z"/>
	</g>
	<g>
		<path style="fill:#2A0F0F;" d="M349.197,229.434l21.149-74.716c1.877-7.152,2.021-14.691,0.431-21.855l-12.73-57.347
			c-1.457-6.563-4.369-12.716-8.522-18.003l-23.842-30.358c-1.225-1.56-3.569-1.616-4.866-0.116l-71.4,78.757l-7.83-5.591
			c-1.852-1.323-3.98-2.207-6.224-2.587l-26.114-4.424h-8.515h-1.467h-8.515l-26.114,4.424c-2.244,0.38-4.372,1.264-6.224,2.587
			l-7.718,5.512L79.183,27.039c-1.298-1.5-3.641-1.444-4.866,0.116L50.475,57.513c-4.153,5.287-7.065,11.44-8.522,18.003
			l-12.73,57.347c-1.59,7.164-1.447,14.703,0.431,21.855l21.149,74.716l5.403,4.731l1.951,20.99l-19.451-4.896h-7.582l14.458,36.101
			c0,0,0.001,0,0.001-0.001l0,0.001l32.187,46.376c2.587,3.772,6.222,6.593,10.514,8.159c20.998,7.657,90.268,32.365,111.472,33.139
			v0.019H200h0.244v-0.019c21.204-0.773,90.473-25.482,111.471-33.139c4.292-1.566,7.927-4.387,10.514-8.159l32.187-46.376
			l14.458-36.101h-7.582l-19.451,4.896l1.951-20.99L349.197,229.434z M332.506,220.496l-3.663,39.779l-5.552,10.773
			c-0.387,0.945,0.419,1.946,1.425,1.77l16.762-3.606l6.469-0.831l-3.178,4.457l-23.951,34.36c-0.131,0.191-0.271,0.373-0.41,0.555
			l-0.151,0.198l-10.93,15.939c-0.732,1.067-1.759,1.865-2.971,2.308c-25.607,9.337-49.306,17.337-68.536,23.136
			c-8.169,2.5-15.294,4.495-21.178,5.927c-0.934,0.234-1.839,0.455-2.713,0.664v-0.019l-1.189,0.262
			c-5.443,1.204-9.712,1.852-12.742,1.944c-3.03-0.092-7.299-0.74-12.742-1.944l-1.189-0.262v0.019
			c-0.874-0.209-1.779-0.431-2.713-0.664c-5.884-1.432-13.008-3.426-21.178-5.927c-19.229-5.799-42.929-13.799-68.535-23.136
			c-1.212-0.442-2.239-1.24-2.971-2.308l-10.93-15.939l-0.15-0.198c-0.14-0.182-0.279-0.365-0.41-0.555l-23.95-34.36
			c-1.059-1.486-2.119-2.972-3.178-4.457l6.469,0.831l16.762,3.606c1.006,0.176,1.812-0.825,1.425-1.77l-5.553-10.773l-3.663-39.779
			l14.574-40.76L61.412,212.57l-17.588-61.628c-1.274-4.852-1.372-10.005-0.285-14.902l12.008-54.091
			c1.457-6.563,4.369-12.716,8.522-18.004l10.798-13.749c1.225-1.56,3.568-1.616,4.866-0.116l58.767,64.344l-17.648,12.601
			l52.717-18.15l16.653-2.011h9.046h1.467h9.046l16.654,2.011l52.717,18.15l-17.648-12.601l58.767-64.344
			c1.298-1.5,3.641-1.444,4.866,0.116l10.798,13.749c4.153,5.288,7.065,11.44,8.522,18.004l12.007,54.091
			c1.087,4.897,0.989,10.05-0.285,14.902l-17.588,61.628l-20.656-32.834L332.506,220.496z"/>
	</g>
</g>
</svg>
