<?xml version="1.0" encoding="iso-8859-1"?>
<!-- Generator: Adobe Illustrator 26.2.1, SVG Export Plug-In . SVG Version: 6.00 Build 0)  -->
<svg version="1.1" id="Layer_7" xmlns="http://www.w3.org/2000/svg" xmlns:xlink="http://www.w3.org/1999/xlink" x="0px" y="0px"
	 viewBox="0 0 595.276 841.89" style="enable-background:new 0 0 595.276 841.89;" xml:space="preserve">
<g>
	<g>
		<g>
			<path style="fill:#2A0F0F;" d="M202.235,297.896c-12.585-2.832-19.211-9.686-19.211-9.686l1.547,5.132
				c1.306,4.333,3.898,8.167,7.431,10.994l1.484,1.187c0,0,60.571,14.975,68.966,24.5c0,0-3.002-6.54-6.385-10.971
				c-1.195-1.566-2.785-2.776-4.614-3.509C242.983,312.149,213.258,300.376,202.235,297.896z"/>
		</g>
		<g>
			<path style="fill:#2A0F0F;" d="M266.649,350.848c-1.966-3.145-7.763-8.566-11.996-12.324c-3.064-2.72-6.692-4.715-10.629-5.85
				c-9.203-2.654-26.83-7.576-34.524-8.625c-9.132-1.245-18.857-4.507-21.45-5.413c-0.029-0.01-0.058-0.015-0.085-0.015
				c-0.189,0-0.326,0.221-0.218,0.403c5.05,8.535,10.13,10.999,10.13,10.999c4.33,10.325,10.146,17.139,13.357,20.387
				c1.399,1.416,3.118,2.46,5.014,3.069c4.977,1.602,15.707,4.992,20.698,6.087c3.504,0.769,7.597,0.95,10.673,0.95
				c2.734,0,4.664-0.143,4.664-0.143c4.204-0.97,7.33-2.691,9.585-4.406l-0.007,0.015c4.817-0.759,2.772,1.002,2.772,1.002
				s-7.669,4.036-11.633,5.892c-3.965,1.857-9.192,0.807-9.192,0.807l-19.695-3.632c2.583,2.664,14.691,5.892,20.341,7.103
				c5.65,1.211,8.547-0.404,8.547-0.404s11.068-4.036,16.073-6.234c5.005-2.198,3.067-6.923,3.067-6.923
				c-1.776-8.637-4.355-15.014-4.355-15.014l-1.618-1.776c0,0,1.533,11.624,1.615,13.4
				C267.86,351.978,266.649,350.848,266.649,350.848z M245.602,355.596c-0.249-0.007-0.501-0.012-0.745-0.022
				c-2.852-0.466-17.942-3.099-30.094-8.553c-0.008-0.008-0.019-0.015-0.027-0.024c-0.108-0.178-4.242-6.999-5.318-9.549
				c0,0-0.885-5.2,1.294-5.2c0.1,0,0.207,0.011,0.321,0.034c2.583,0.525,28.219,5.776,40.763,13.641
				C251.797,345.924,257.032,353.352,245.602,355.596z"/>
		</g>
		<g>
			<path style="fill:#2A0F0F;" d="M212.621,173.642l-40.839-45.657c-0.804-0.903-1.823-1.587-2.963-1.989l-1.007-0.355
				l36.078,60.239L212.621,173.642z"/>
		</g>
		<g>
			<path style="fill:#2A0F0F;" d="M209.942,247.279l3.096,10.892c0.488,1.716,1.821,3.063,3.532,3.568l13.379,3.955
				c1.579,0.467,3.27,0.384,4.796-0.234l3.616-1.466l-10.834-5.834c-3.408-1.835-6.414-7.229-5.041-10.848l9.902-18.35l0.148,4.975
				c0.234,1.705,0.914,3.311,1.971,4.669c1.412,1.813,3.112,3.751,5.145,5.693c4.289,4.095,8.583,6.798,11.947,8.556
				c-2.41-3.851-5.086-8.982-7.104-15.337c-1.215-3.827-1.962-7.376-2.422-10.493V215.58l-1.453-4.7l-13.639,8.066
				c-0.064,0.038-0.122,0.084-0.185,0.124l-11.138,15.612l-4.893,7.339C209.735,243.568,209.434,245.49,209.942,247.279z"/>
		</g>
		<g>
			<path style="fill:#2A0F0F;" d="M403.258,305.523l1.484-1.187c3.534-2.827,6.125-6.661,7.431-10.994l1.547-5.132
				c0,0-6.626,6.855-19.211,9.686c-11.024,2.48-40.749,14.252-49.218,17.647c-1.828,0.733-3.418,1.943-4.614,3.509
				c-3.383,4.43-6.385,10.971-6.385,10.971C342.687,320.498,403.258,305.523,403.258,305.523z"/>
		</g>
		<g>
			<path style="fill:#2A0F0F;" d="M327.673,360.516c5.005,2.198,16.073,6.234,16.073,6.234s2.896,1.614,8.547,0.404
				c5.651-1.211,17.758-4.44,20.341-7.103l-19.695,3.632c0,0-5.227,1.049-9.192-0.807c-3.965-1.857-11.633-5.892-11.633-5.892
				s-2.045-1.761,2.771-1.002l-0.007-0.015c2.256,1.715,5.382,3.436,9.586,4.406c0,0,1.93,0.143,4.664,0.143
				c3.076,0,7.168-0.181,10.673-0.95c4.99-1.096,15.72-4.486,20.698-6.087c1.895-0.61,3.614-1.654,5.014-3.069
				c3.21-3.248,9.027-10.061,13.357-20.387c0,0,5.081-2.463,10.13-10.999c0.108-0.182-0.029-0.403-0.218-0.403
				c-0.027,0-0.056,0.005-0.085,0.015c-2.593,0.907-12.318,4.168-21.45,5.413c-7.694,1.049-25.321,5.971-34.524,8.625
				c-3.937,1.135-7.565,3.13-10.629,5.85c-4.234,3.758-10.03,9.179-11.996,12.324c0,0-1.21,1.13-1.13-0.646
				c0.081-1.776,1.615-13.4,1.615-13.4l-1.619,1.776c0,0-2.579,6.377-4.355,15.014C324.606,353.593,322.669,358.318,327.673,360.516
				z M344.947,345.924c12.545-7.865,38.18-13.117,40.764-13.641c0.114-0.023,0.22-0.034,0.321-0.034c2.178,0,1.294,5.2,1.294,5.2
				c-1.076,2.549-5.209,9.369-5.317,9.549c-0.008,0.008-0.019,0.015-0.027,0.024c-12.152,5.453-27.241,8.087-30.094,8.553
				c-0.243,0.01-0.496,0.015-0.745,0.022C339.711,353.352,344.947,345.924,344.947,345.924z"/>
		</g>
		<g>
			<path style="fill:#2A0F0F;" d="M362.236,238.606c1.057-1.358,1.738-2.964,1.972-4.669l-0.085-5.621l10.135,18.996
				c1.373,3.619-1.632,9.013-5.041,10.848l-10.835,5.834l3.617,1.466c1.526,0.619,3.217,0.701,4.796,0.234l13.379-3.955
				c1.711-0.506,3.043-1.852,3.531-3.568l3.097-10.892c0.509-1.789,0.207-3.71-0.824-5.258l-4.893-7.339l-11.138-15.612
				c-0.063-0.04-0.121-0.086-0.185-0.124l-13.639-8.066l-1.453,4.7v11.444c-0.46,3.117-1.207,6.667-2.422,10.493
				c-2.017,6.355-4.693,11.486-7.104,15.337c3.363-1.758,7.658-4.461,11.947-8.556C359.125,242.356,360.825,240.419,362.236,238.606
				z"/>
		</g>
		<g>
			<path style="fill:#2A0F0F;" d="M427.464,125.641l-1.007,0.355c-1.14,0.402-2.159,1.087-2.963,1.989l-40.839,45.657l8.731,12.238
				L427.464,125.641z"/>
		</g>
		<g>
			<path style="fill:#2A0F0F;" d="M446.835,270.169l21.149-74.716c1.877-7.151,2.021-14.691,0.431-21.855l-12.73-57.347
				c-1.457-6.563-4.369-12.716-8.522-18.003l-23.842-30.358c-1.225-1.56-3.569-1.616-4.866-0.116l-71.4,78.757l-7.83-5.591
				c-1.852-1.323-3.98-2.207-6.224-2.587l-26.114-4.424h-8.515h-1.467h-8.515l-26.114,4.424c-2.244,0.38-4.372,1.264-6.224,2.587
				l-7.718,5.512l-71.512-78.678c-1.298-1.5-3.641-1.444-4.866,0.116l-23.842,30.358c-4.153,5.287-7.065,11.44-8.522,18.003
				l-12.73,57.347c-1.59,7.164-1.447,14.703,0.431,21.855l21.149,74.716l5.403,4.731l1.951,20.99l-19.451-4.896h-7.582
				l14.458,36.101l0.008-0.012c-0.003,0.004-0.005,0.008-0.008,0.012c10.729,15.459,21.458,30.917,32.187,46.376
				c2.587,3.772,6.222,6.593,10.514,8.159c20.998,7.657,90.268,32.365,111.472,33.139v0.019h0.244h0.244v-0.019
				c21.204-0.773,90.473-25.482,111.471-33.139c4.292-1.566,7.927-4.387,10.514-8.159l32.187-46.376l14.458-36.101h-7.582
				l-19.451,4.896l1.951-20.99L446.835,270.169z M430.145,261.231l-3.663,39.779l-5.552,10.773c-0.387,0.945,0.419,1.946,1.425,1.77
				l16.762-3.606l6.469-0.831l-3.178,4.457l-23.95,34.36c-0.131,0.191-0.271,0.373-0.41,0.555l-0.151,0.198l-10.93,15.939
				c-0.732,1.067-1.759,1.865-2.971,2.308c-25.607,9.337-49.306,17.337-68.536,23.136c-8.169,2.5-15.294,4.495-21.178,5.927
				c-0.934,0.234-1.839,0.455-2.713,0.664v-0.019l-1.189,0.262c-5.443,1.204-9.712,1.852-12.742,1.944
				c-3.029-0.092-7.299-0.74-12.742-1.944l-1.189-0.262v0.019c-0.874-0.209-1.779-0.431-2.713-0.664
				c-5.884-1.432-13.008-3.426-21.178-5.927c-19.229-5.799-42.929-13.799-68.535-23.136c-1.212-0.442-2.239-1.24-2.971-2.308
				l-10.93-15.939l-0.15-0.198c-0.14-0.182-0.279-0.365-0.41-0.555l-23.951-34.36l-3.178-4.457l6.469,0.831l16.762,3.606
				c1.006,0.176,1.812-0.825,1.425-1.77l-5.553-10.773l-3.663-39.779l14.574-40.76l-20.656,32.834l-17.588-61.628
				c-1.274-4.852-1.372-10.005-0.285-14.902l12.008-54.091c1.457-6.563,4.369-12.716,8.522-18.004l10.798-13.749
				c1.225-1.56,3.568-1.616,4.866-0.116l58.767,64.344l-17.648,12.601l52.717-18.15l16.653-2.011h9.046h1.467h9.046l16.654,2.011
				l52.717,18.15L359.14,155.16l58.767-64.344c1.298-1.5,3.641-1.444,4.866,0.116l10.798,13.749
				c4.153,5.288,7.065,11.44,8.522,18.004l12.007,54.091c1.087,4.897,0.989,10.05-0.285,14.902l-17.588,61.628l-20.656-32.834
				L430.145,261.231z"/>
		</g>
	</g>
	<path style="fill:#2A0F0F;" d="M481.713,128.381l13.895,64.926l-7.885,11.051l-16.211,57.273l95.069-133.249L481.713,128.381z
		 M502.195,148.447h25.419l-19.554,27.407L502.195,148.447z"/>
	<path style="fill:#2A0F0F;" d="M123.765,261.632l-16.212-57.273l-7.885-11.051l13.896-64.927H28.695L123.765,261.632z
		 M87.216,175.854l-19.555-27.407h25.42L87.216,175.854z"/>
	<path style="fill:#2A0F0F;" d="M323.713,434.238l-3.244,4.547h-45.66l-3.245-4.548c-8.691-2.2-19.111-5.195-31.009-8.913
		l57.084,80.01l57.084-80.009C342.825,429.044,332.406,432.038,323.713,434.238z M297.638,470.784l-11.536-16.17h23.072
		L297.638,470.784z"/>
</g>
<polygon style="fill:#2A0F0F;" points="148.517,594.607 155.642,594.607 152.08,581.606 "/>
<path style="fill:#2A0F0F;" d="M349.102,580.606c-5,0-7.501,3.563-7.501,9.815c0,6.25,2.5,9.813,7.501,9.813
	c4.938,0,7.438-3.563,7.438-9.813C356.54,584.169,354.04,580.606,349.102,580.606z M349.071,591.226
	c-0.014-0.242-0.022-0.51-0.022-0.805c0-0.295,0.008-0.563,0.022-0.805c0.014,0.242,0.022,0.51,0.022,0.805
	C349.092,590.716,349.084,590.983,349.071,591.226z"/>
<polygon style="fill:#2A0F0F;" points="133.314,680.51 145.906,680.51 139.61,657.536 "/>
<polygon style="fill:#2A0F0F;" points="450.544,680.51 463.135,680.51 456.84,657.536 "/>
<g>
	<path style="fill:#2A0F0F;" d="M193.12,776.586h-16.359l-1.943-7.082h-12.535l-1.88,7.082h-16.421l14.792-42.369h19.492
		L193.12,776.586z M164.978,759.6h7.145l-3.573-13.036L164.978,759.6z"/>
	<path style="fill:#2A0F0F;" d="M189.103,734.216h16.672l7.145,28.142l7.208-28.142h16.735l-12.786,42.369h-22.313L189.103,734.216z
		"/>
	<path style="fill:#2A0F0F;" d="M281.921,776.586h-16.359l-1.943-7.082h-12.535l-1.88,7.082h-16.421l14.792-42.369h19.492
		L281.921,776.586z M253.779,759.6h7.145l-3.573-13.036L253.779,759.6z"/>
	<path style="fill:#2A0F0F;" d="M306.297,776.586h-16.359v-30.273h-12.034v-12.097h40.427v12.097h-12.034V776.586z"/>
	<path style="fill:#2A0F0F;" d="M363.453,776.586h-16.359l-1.943-7.082h-12.535l-1.88,7.082h-16.421l14.792-42.369h19.492
		L363.453,776.586z M335.312,759.6h7.145l-3.573-13.036L335.312,759.6z"/>
	<path style="fill:#2A0F0F;" d="M407.697,776.586h-16.233c-2.57-13.287-4.575-13.225-9.464-13.225v13.225h-15.732v-41.931
		c3.635-0.627,10.655-1.253,16.296-1.253c12.159,0,24.131,2.946,24.131,14.729c0,6.581-4.325,9.464-7.772,11.031
		C402.495,759.851,405.942,763.737,407.697,776.586z M390.837,749.07c0-3.51-4.262-4.261-7.02-4.261
		c-0.752,0-1.379,0.062-1.88,0.125v8.461c0.439,0.063,0.877,0.063,1.442,0.063C386.074,753.458,390.837,752.832,390.837,749.07z"/>
	<path style="fill:#2A0F0F;" d="M447.302,762.358c0,10.404-7.27,15.042-18.427,15.042c-7.584,0-12.849-1.316-17.612-3.196
		l2.57-11.47c4.011,1.943,7.96,3.448,13.977,3.448c2.695,0,3.51-0.69,3.51-1.567c0-3.134-20.056-0.564-19.931-16.61
		c0.063-9.464,7.271-14.603,18.051-14.603c5.954,0,11.532,1.065,16.233,2.444l-2.57,11.407c-2.758-1.254-7.584-2.507-12.535-2.507
		c-2.131,0-3.51,0.313-3.51,1.567C427.058,749.384,447.302,747.378,447.302,762.358z"/>
</g>
<polygon style="fill:#2A0F0F;" points="78.214,761.15 130.555,761.15 130.555,751.247 81.676,751.247 "/>
<polygon style="fill:#2A0F0F;" points="517.631,761.15 465.29,761.15 465.29,751.247 514.17,751.247 "/>
<path style="fill:#2A0F0F;" d="M475.562,581.169v-11.876c0-4.113-3.334-7.448-7.448-7.448h-34.878c-1.317,0-2.553,0.345-3.626,0.945
	c-1.074-0.6-2.309-0.945-3.626-0.945h-16.376c-2.731,0-5.242,1.494-6.545,3.894l-0.928,1.709l-0.908-1.687
	c-1.299-2.412-3.818-3.917-6.557-3.917h-16.376c-3.794,0-6.919,2.839-7.382,6.507c-5.432-4.663-12.928-7.32-21.809-7.32
	c-8.913,0-16.433,2.666-21.878,7.343c-0.785-2.155-2.55-3.913-4.903-4.603c-6.196-1.818-12.348-2.74-18.286-2.74
	c-6.606,0-12.215,1.596-16.474,4.471c-1.297-2.188-3.676-3.659-6.404-3.659h-34.878c-0.662,0-1.301,0.095-1.912,0.257
	c-0.615-0.163-1.252-0.257-1.902-0.257h-16.189c-2.095,0-4.011,0.871-5.375,2.293c-1.368-1.426-3.288-2.293-5.376-2.293h-14.876
	c-2.056,0-3.949,0.841-5.313,2.228c-1.36-1.383-3.249-2.228-5.313-2.228h-16.126c-2.26,0-4.399,1.027-5.812,2.791
	c-0.092,0.114-0.169,0.237-0.253,0.356c-1.373-1.934-3.608-3.146-6.063-3.146h-19.439c-3.167,0-5.988,2.003-7.032,4.993
	l-14.751,42.254c-0.795,2.278-0.438,4.8,0.959,6.767c1.397,1.967,3.66,3.136,6.073,3.136h16.376c3.377,0,6.332-2.272,7.198-5.536
	l0.405-1.527h1.093l0.435,1.586c0.887,3.235,3.828,5.478,7.182,5.478h16.314c1.198,0,2.359-0.29,3.395-0.821
	c1.018,0.516,2.155,0.821,3.357,0.821h19.752c1.919,0,3.695-0.732,5.032-1.957c1.336,1.224,3.113,1.957,5.032,1.957h19.876
	c2.851,0,5.368-1.632,6.615-4.082c1.23,2.42,3.737,4.082,6.638,4.082h34.878c1.882,0,3.595-0.703,4.906-1.854
	c5.498,1.828,10.989,2.667,17.409,2.667c9.917,0,17.493-3.335,21.801-9.193c5.529,5.82,13.799,9.193,23.829,9.193
	c8.881,0,16.376-2.657,21.809-7.319c0.464,3.668,3.588,6.507,7.382,6.507h15.189c4.113,0,7.448-3.334,7.448-7.448v-0.682
	c0.326,0.044,0.657,0.066,0.991,0.066h0.375c0.355,0,0.707-0.025,1.053-0.075v0.691c0,4.113,3.334,7.448,7.448,7.448h15.189
	c1.317,0,2.553-0.345,3.626-0.945c1.074,0.6,2.309,0.945,3.626,0.945h34.878c4.113,0,7.448-3.334,7.448-7.448v-11.813
	c0-2.154-0.914-4.094-2.375-5.453v-7.658C474.648,585.263,475.562,583.323,475.562,581.169z M175.703,611.547h-15.435l-1.938-7.064
	h-12.501l-1.875,7.064h-16.376l14.751-42.254h19.439l12.392,35.346v0l2.422,6.908H175.703z M233.026,611.547h-19.876h0l-2.5-11.876
	l-2.5-11.876l-5.063,23.753h-19.064h-0.688l-9.438-42.254h16.126h0l4.25,28.753l6.376-28.753h0h14.876l6.438,28.753l4.313-28.753
	h12.556h3.633L233.026,611.547z M281.157,572.492v8.677h-2.488h-16.513v3.688h16.482h0.144v1.539v9.462h-16.626v3.876h19.002v11.813
	h-2.305h-32.573V586.38v-17.088h3.631h31.247V572.492z M317.525,608.152c-0.141,0.126-0.282,0.252-0.43,0.371
	c-0.19,0.154-0.386,0.303-0.587,0.447c-0.171,0.123-0.348,0.241-0.526,0.357c-0.196,0.128-0.39,0.258-0.595,0.378
	c-0.335,0.195-0.681,0.379-1.039,0.552c-0.203,0.098-0.415,0.187-0.625,0.278c-0.262,0.114-0.525,0.225-0.798,0.328
	c-0.203,0.076-0.41,0.148-0.619,0.218c-0.289,0.097-0.584,0.188-0.884,0.274c-0.192,0.055-0.382,0.112-0.579,0.163
	c-0.486,0.125-0.981,0.238-1.494,0.335c-0.108,0.02-0.222,0.034-0.331,0.053c-0.438,0.077-0.883,0.144-1.339,0.201
	c-0.19,0.024-0.384,0.043-0.577,0.063c-0.408,0.043-0.822,0.078-1.243,0.105c-0.184,0.012-0.366,0.026-0.553,0.035
	c-0.597,0.029-1.203,0.049-1.825,0.049c-0.003,0-0.006,0-0.009,0c-0.005,0-0.01,0-0.016,0c-0.859,0-1.682-0.021-2.484-0.055
	c-0.29-0.012-0.566-0.032-0.849-0.048c-0.499-0.029-0.993-0.06-1.472-0.101c-0.335-0.028-0.664-0.061-0.99-0.095
	c-0.389-0.041-0.771-0.087-1.146-0.136c-0.359-0.047-0.718-0.093-1.066-0.147c-0.281-0.043-0.552-0.093-0.826-0.141
	c-3.261-0.566-6.074-1.423-8.714-2.466l2.563-11.438c1.5,0.726,2.992,1.391,4.586,1.939c2.126,0.73,4.436,1.251,7.195,1.43
	c0.69,0.045,1.408,0.068,2.158,0.068c1.344,0,2.219-0.172,2.758-0.453c0.404-0.211,0.62-0.484,0.702-0.791
	c0.027-0.103,0.04-0.209,0.04-0.318c0-0.094-0.02-0.182-0.055-0.267c-0.012-0.028-0.034-0.053-0.049-0.08
	c-0.031-0.055-0.063-0.11-0.109-0.161c-0.026-0.029-0.061-0.055-0.091-0.083c-0.051-0.046-0.101-0.092-0.164-0.136
	c-0.038-0.026-0.083-0.051-0.125-0.077c-0.07-0.042-0.142-0.085-0.223-0.125c-0.046-0.023-0.097-0.045-0.146-0.067
	c-0.093-0.041-0.189-0.082-0.293-0.122c-0.048-0.018-0.098-0.036-0.149-0.054c-0.124-0.044-0.252-0.087-0.389-0.129
	c-0.037-0.011-0.074-0.023-0.111-0.034c-4.991-1.488-18.074-2.276-17.972-15.229c0.022-3.32,0.942-6.094,2.572-8.311l0,0
	c0,0,0,0,0,0c0.549-0.747,1.18-1.427,1.887-2.044c0.032-0.028,0.063-0.055,0.095-0.083c0.671-0.574,1.409-1.089,2.21-1.545
	c0.117-0.067,0.235-0.132,0.354-0.197c0.281-0.15,0.566-0.296,0.861-0.432c0.281-0.13,0.565-0.256,0.859-0.374
	c0.214-0.085,0.434-0.164,0.655-0.242c0.25-0.09,0.505-0.174,0.764-0.254c0.188-0.058,0.372-0.12,0.565-0.174
	c0.428-0.12,0.868-0.225,1.317-0.322c0.17-0.036,0.343-0.069,0.516-0.102c0.414-0.08,0.836-0.15,1.267-0.21
	c0.097-0.013,0.191-0.031,0.29-0.043c0.527-0.067,1.069-0.116,1.619-0.154c0.141-0.01,0.284-0.018,0.427-0.026
	c0.572-0.031,1.151-0.053,1.746-0.053h0l0,0c2.227,0,4.401,0.15,6.496,0.409c3.492,0.432,6.763,1.17,9.693,2.03l-2.563,11.375
	c-1.375-0.625-3.266-1.25-5.43-1.719c-2.164-0.469-4.602-0.782-7.071-0.782c-0.797,0-1.488,0.044-2.041,0.165
	c-0.922,0.201-1.459,0.617-1.459,1.398c0,0.086,0.021,0.166,0.052,0.245c0.009,0.022,0.019,0.043,0.03,0.064
	c0.032,0.062,0.072,0.122,0.122,0.179c0.013,0.015,0.023,0.03,0.037,0.045c0.068,0.07,0.149,0.137,0.244,0.202
	c0.019,0.013,0.042,0.026,0.062,0.039c0.084,0.054,0.176,0.106,0.277,0.157c0.028,0.014,0.055,0.028,0.085,0.042
	c0.263,0.124,0.574,0.241,0.931,0.354c0.019,0.006,0.039,0.012,0.059,0.018c2.409,0.752,6.708,1.374,10.536,3.146
	c0.014,0.006,0.027,0.013,0.041,0.019c0.629,0.293,1.243,0.618,1.835,0.979c0.029,0.018,0.058,0.035,0.087,0.052
	c0.182,0.113,0.361,0.229,0.538,0.349c0.048,0.032,0.094,0.066,0.142,0.099c2.927,2.031,5.112,5.104,5.112,10.013
	c0,2.857-0.568,5.263-1.597,7.271c-0.075,0.147-0.15,0.295-0.231,0.438c-0.134,0.238-0.275,0.47-0.423,0.696
	c-0.09,0.137-0.186,0.269-0.281,0.402C318.794,606.894,318.196,607.556,317.525,608.152z M370.155,601.818
	c-0.032,0.056-0.066,0.111-0.099,0.167c-0.225,0.383-0.461,0.757-0.71,1.121c-0.025,0.036-0.049,0.074-0.074,0.11
	c-0.275,0.396-0.564,0.781-0.867,1.153c-0.03,0.036-0.061,0.071-0.091,0.108c-0.275,0.334-0.563,0.657-0.86,0.971
	c-0.048,0.05-0.095,0.102-0.143,0.152c-0.332,0.343-0.675,0.676-1.034,0.994c-0.011,0.01-0.022,0.019-0.033,0.028
	c-0.338,0.299-0.69,0.586-1.051,0.863c-0.069,0.053-0.139,0.107-0.209,0.159c-0.755,0.565-1.556,1.082-2.401,1.549
	c-0.087,0.048-0.176,0.096-0.264,0.143c-0.39,0.209-0.788,0.409-1.196,0.597c-0.038,0.018-0.075,0.037-0.113,0.054
	c-0.444,0.202-0.901,0.389-1.365,0.566c-0.098,0.037-0.198,0.073-0.297,0.109c-0.395,0.144-0.797,0.28-1.205,0.407
	c-0.09,0.028-0.178,0.057-0.268,0.084c-0.481,0.143-0.971,0.274-1.47,0.392c-0.098,0.023-0.198,0.043-0.297,0.066
	c-0.42,0.094-0.845,0.18-1.277,0.256c-0.124,0.022-0.247,0.045-0.371,0.066c-0.518,0.085-1.043,0.16-1.577,0.22
	c-0.075,0.008-0.152,0.014-0.228,0.021c-0.469,0.049-0.945,0.087-1.426,0.116c-0.146,0.009-0.292,0.017-0.439,0.024
	c-0.556,0.027-1.117,0.045-1.688,0.045c-0.519,0-1.03-0.014-1.537-0.036c-0.151-0.007-0.301-0.017-0.451-0.025
	c-0.364-0.02-0.724-0.046-1.081-0.077c-0.157-0.014-0.315-0.028-0.471-0.044c-0.387-0.04-0.769-0.087-1.147-0.14
	c-0.102-0.014-0.205-0.026-0.307-0.041c-0.485-0.073-0.964-0.157-1.434-0.252c-0.064-0.013-0.126-0.028-0.19-0.042
	c-0.405-0.084-0.805-0.177-1.198-0.278c-0.112-0.029-0.223-0.059-0.334-0.089c-0.363-0.098-0.721-0.202-1.074-0.313
	c-0.089-0.028-0.18-0.055-0.268-0.084c-0.896-0.293-1.758-0.63-2.583-1.01c-0.035-0.016-0.07-0.034-0.105-0.05
	c-0.378-0.177-0.749-0.363-1.111-0.557c-0.052-0.028-0.103-0.055-0.155-0.083c-1.205-0.658-2.321-1.415-3.341-2.267
	c-0.007-0.006-0.014-0.012-0.021-0.018c-4.511-3.782-7.131-9.421-7.131-16.532c0-2.385,0.3-4.601,0.862-6.641
	c0.018-0.064,0.034-0.129,0.052-0.193c0.165-0.579,0.352-1.143,0.56-1.692c0.026-0.07,0.054-0.139,0.081-0.208
	c0.215-0.551,0.449-1.089,0.706-1.609c0.019-0.038,0.039-0.074,0.058-0.111c0.537-1.068,1.163-2.067,1.871-2.998
	c0.04-0.052,0.078-0.106,0.119-0.158c0.34-0.438,0.7-0.859,1.077-1.265c0.054-0.059,0.109-0.116,0.164-0.174
	c0.384-0.403,0.783-0.792,1.202-1.162c0.042-0.037,0.086-0.072,0.128-0.109c0.44-0.381,0.894-0.748,1.371-1.093
	c0.001-0.001,0.002-0.001,0.003-0.002c0.469-0.339,0.96-0.656,1.464-0.96c0.066-0.04,0.13-0.08,0.196-0.119
	c0.485-0.285,0.987-0.551,1.502-0.802c0.087-0.042,0.174-0.084,0.262-0.125c0.52-0.245,1.053-0.475,1.602-0.686
	c0.072-0.028,0.147-0.053,0.22-0.08c0.574-0.214,1.159-0.413,1.762-0.588c0.006-0.002,0.012-0.004,0.018-0.006
	c0.601-0.174,1.221-0.325,1.85-0.46c0.091-0.02,0.181-0.041,0.273-0.06c0.604-0.124,1.221-0.228,1.85-0.317
	c0.117-0.016,0.233-0.032,0.351-0.047c0.633-0.081,1.275-0.147,1.931-0.192c0.099-0.007,0.199-0.011,0.298-0.017
	c0.692-0.041,1.393-0.068,2.108-0.068h0l0,0h0c0.57,0,1.13,0.018,1.686,0.045c0.149,0.007,0.296,0.016,0.444,0.025
	c0.479,0.029,0.952,0.067,1.419,0.116c0.077,0.008,0.157,0.013,0.234,0.022c0.533,0.06,1.057,0.134,1.574,0.219
	c0.126,0.021,0.25,0.044,0.375,0.066c0.429,0.076,0.852,0.161,1.27,0.255c0.101,0.023,0.204,0.043,0.305,0.067
	c0.498,0.118,0.987,0.248,1.467,0.391c0.092,0.027,0.181,0.057,0.272,0.086c0.407,0.126,0.806,0.261,1.199,0.405
	c0.101,0.037,0.203,0.073,0.303,0.111c0.464,0.176,0.919,0.363,1.362,0.564c0.039,0.018,0.077,0.038,0.117,0.056
	c0.407,0.187,0.803,0.387,1.192,0.595c0.089,0.047,0.177,0.095,0.265,0.144c0.845,0.467,1.645,0.984,2.4,1.549
	c0.071,0.053,0.141,0.107,0.211,0.161c0.36,0.277,0.712,0.563,1.05,0.862c0.011,0.01,0.023,0.019,0.033,0.028
	c0.358,0.319,0.701,0.651,1.034,0.994c0.048,0.05,0.095,0.101,0.143,0.152c0.298,0.314,0.585,0.637,0.86,0.971
	c0.03,0.036,0.061,0.071,0.09,0.107c0.303,0.372,0.592,0.757,0.867,1.153c0.025,0.036,0.049,0.074,0.074,0.111
	c0.249,0.363,0.484,0.737,0.709,1.12c0.033,0.056,0.067,0.111,0.099,0.168c0.244,0.426,0.476,0.862,0.69,1.31l0,0l0,0
	c1.384,2.903,2.134,6.285,2.134,10.088C372.979,594.811,371.977,598.639,370.155,601.818z M425.984,611.547h-0.195h-14.993v-21.565
	l-8.501,13.501h-0.375l-8.438-13.501v21.565h-15.189v-9.448v-23.357v-9.449h16.376l7.438,13.814l7.501-13.814h16.181h0.195V611.547z
	 M468.114,581.169h-19.002v3.688h16.626v11.001h-16.626v3.876h19.002v0v11.813h-34.683h-0.195v-42.254h0.195h34.683V581.169z"/>
<path style="fill:#2A0F0F;" d="M508.571,707.486l-26.177-74.666c-1.256-3.582-4.638-5.98-8.434-5.98h-34.351
	c-3.8,0-7.185,2.403-8.438,5.992l-13.667,39.146v-36.2c0-4.936-4.001-8.937-8.937-8.937H382.17c-4.936,0-8.937,4.001-8.937,8.937
	v4.725l-5.301-9.19c-1.596-2.767-4.547-4.472-7.742-4.472h-28.718c-2.323,0-4.432,0.894-6.021,2.347
	c-1.589-1.453-3.698-2.347-6.021-2.347H290.6c-2.975,0-5.61,1.453-7.235,3.689c-1.625-2.235-4.26-3.689-7.235-3.689h-28.828
	c-2.137,0-4.097,0.752-5.634,2.003c-1.538-1.251-3.498-2.003-5.634-2.003h-28.607c-4.936,0-8.937,4.001-8.937,8.937v44.682
	c-0.472,0.036-1.088,0.061-1.887,0.061c-2.001,0-2.922-0.227-4.098-0.573c-0.828-0.244-1.677-0.364-2.524-0.364
	c-1.583,0-3.153,0.42-4.543,1.24c-1.032,0.609-1.916,1.416-2.618,2.357l-17.655-50.359c-1.256-3.582-4.638-5.98-8.434-5.98H122.38
	c-3.8,0-7.185,2.403-8.438,5.992l-26.067,74.666c-0.954,2.733-0.525,5.76,1.151,8.12c1.676,2.361,4.392,3.763,7.287,3.763h28.939
	c4.053,0,7.598-2.727,8.638-6.644l1.55-5.837h8.401l1.621,5.908c1.065,3.882,4.594,6.573,8.619,6.573h28.828
	c1.339,0,2.634-0.312,3.811-0.868c5.099,1.684,9.986,2.304,17.063,2.304c19.277,0,32.261-7.732,37.937-22.149
	c6.147,14.265,20.563,22.149,41.592,22.149c18.637,0,32.094-6.161,39.224-17.445v7.071c0,4.936,4.001,8.937,8.937,8.937h26.398
	c4.936,0,8.937-4.001,8.937-8.937v-6.556l6.852,11.216c1.623,2.657,4.513,4.278,7.627,4.278h27.282c0.87,0,1.709-0.13,2.505-0.363
	c0.795,0.229,1.622,0.363,2.47,0.363h28.939c4.053,0,7.598-2.727,8.638-6.644l1.55-5.837h8.401l1.621,5.908
	c1.065,3.882,4.594,6.573,8.619,6.573h28.828c2.897,0,5.615-1.404,7.29-3.768C509.104,713.249,509.53,710.22,508.571,707.486z
	 M176.829,710.443L176.829,710.443l-22.749,0l-3.424-12.481h-22.091l-3.314,12.481H96.313v0l0,0l13.034-37.333l13.034-37.333h34.351
	l15.054,42.94l11.123,31.726H176.829z M236.034,635.777v43.739c0,20.765-9.941,32.363-32.253,32.363
	c-0.534,0-1.049-0.005-1.553-0.012c-0.272-0.004-0.534-0.011-0.797-0.017c-0.195-0.005-0.392-0.01-0.583-0.016
	c-0.36-0.011-0.713-0.026-1.059-0.042c-0.037-0.002-0.074-0.004-0.112-0.006c-2.926-0.142-5.401-0.466-7.84-1.085
	c0-0.003,0-0.006,0-0.009c-2.056-0.517-4.073-1.232-6.287-2.198l4.43-19.975c1.6,0.424,3.64,0.937,6.622,0.937
	c6.296,0,10.825-1.215,10.825-8.395v-45.285v0L236.034,635.777L236.034,635.777z M319.429,635.777v45.175
	c0,21.207-13.475,30.927-36.118,30.927c-7.784,0-14.471-1.149-19.896-3.518c-0.986-0.431-1.931-0.902-2.833-1.414
	c-3.157-1.791-5.79-4.082-7.857-6.891c-3.543-4.815-5.423-11.152-5.423-19.105v-45.175h28.828v0v44.844
	c0,1.325,0.069,2.568,0.268,3.686c0.099,0.559,0.231,1.087,0.402,1.579c0.857,2.459,2.713,4.012,6.51,4.012
	c6.185,0,7.29-4.087,7.29-9.278v-44.844v0L319.429,635.777L319.429,635.777z M408.568,635.777v61.8v12.866h-3.953v0h-23.328
	l-11.708-19.164l-11.708-19.164v38.327v0h-26.398v0h0v-74.666h0v0h28.718l21.98,38.106v-38.106v0L408.568,635.777L408.568,635.777z
	 M500.137,710.443h-28.828l-3.424-12.481h-22.091l-3.314,12.481h-24.976v0h-3.963l10.843-31.058l15.224-43.608h34.351l13.089,37.333
	L500.137,710.443L500.137,710.443L500.137,710.443z"/>
</svg>
